999
dxfrw 0.6.3
  0
SECTION
  2
HEADER
  9
$ACADVER
  1
AC1021
  9
$DWGCODEPAGE
  3
ANSI_1252
  9
$INSBASE
 10
0
 20
0
 30
0
  9
$EXTMIN
 10
0
 20
0
 30
0
  9
$EXTMAX
 10
420
 20
297
 30
0
  9
$LIMMIN
 10
0
 20
0
  9
$LIMMAX
 10
420
 20
297
  9
$ORTHOMODE
 70
    0
  9
$REGENMODE
 70
    1
  9
$FILLMODE
 70
    1
  9
$QTEXTMODE
 70
    0
  9
$MIRRTEXT
 70
    0
  9
$LTSCALE
 40
1
  9
$ATTMODE
 70
    0
  9
$TEXTSIZE
 40
2.5
  9
$TRACEWID
 40
15.68
  9
$TEXTSTYLE
  7
STANDARD
  9
$CLAYER
  8
0
  9
$CELTYPE
  6
BYLAYER
  9
$CECOLOR
 62
  256
  9
$CELTSCALE
 40
1
  9
$DISPSILH
 70
    0
  9
$DIMSCALE
 40
2.5
  9
$DIMASZ
 40
2.5
  9
$DIMEXO
 40
0.625
  9
$DIMDLI
 40
3.75
  9
$DIMRND
 40
0
  9
$DIMDLE
 40
0
  9
$DIMEXE
 40
1.25
  9
$DIMTP
 40
0
  9
$DIMTM
 40
0
  9
$DIMTXT
 40
2.5
  9
$DIMCEN
 40
2.5
  9
$DIMTSZ
 40
0
  9
$DIMTOL
 70
    0
  9
$DIMLIM
 70
    0
  9
$DIMTIH
 70
    0
  9
$DIMTOH
 70
    0
  9
$DIMSE1
 70
    0
  9
$DIMSE2
 70
    0
  9
$DIMTAD
 70
    1
  9
$DIMZIN
 70
    8
  9
$DIMBLK
  1

  9
$DIMASO
 70
    1
  9
$DIMSHO
 70
    1
  9
$DIMPOST
  1

  9
$DIMAPOST
  1

  9
$DIMALT
 70
    0
  9
$DIMALTD
 70
    3
  9
$DIMALTF
 40
0.03937
  9
$DIMLFAC
 40
1
  9
$DIMTOFL
 70
    1
  9
$DIMTVP
 40
0
  9
$DIMTIX
 70
    0
  9
$DIMSOXD
 70
    0
  9
$DIMSAH
 70
    0
  9
$DIMBLK1
  1

  9
$DIMBLK2
  1

  9
$DIMSTYLE
  2
STANDARD
  9
$DIMCLRD
 70
    0
  9
$DIMCLRE
 70
    0
  9
$DIMCLRT
 70
    0
  9
$DIMTFAC
 40
1
  9
$DIMGAP
 40
0.625
  9
$DIMJUST
 70
    0
  9
$DIMSD1
 70
    0
  9
$DIMSD2
 70
    0
  9
$DIMTOLJ
 70
    0
  9
$DIMTZIN
 70
    8
  9
$DIMALTZ
 70
    0
  9
$DIMALTTZ
 70
    0
  9
$DIMUPT
 70
    0
  9
$DIMDEC
 70
    2
  9
$DIMTDEC
 70
    2
  9
$DIMALTU
 70
    2
  9
$DIMALTTD
 70
    3
  9
$DIMTXSTY
  7
STANDARD
  9
$DIMAUNIT
 70
    0
  9
$DIMADEC
 70
    0
  9
$DIMALTRND
 40
0
  9
$DIMAZIN
 70
    0
  9
$DIMDSEP
 70
   44
  9
$DIMATFIT
 70
    3
  9
$DIMFRAC
 70
    0
  9
$DIMLDRBLK
  1
STANDARD
  9
$DIMLUNIT
 70
    2
  9
$DIMLWD
 70
   -2
  9
$DIMLWE
 70
   -2
  9
$DIMTMOVE
 70
    0
  9
$DIMFXL
 40
1
  9
$DIMFXLON
 70
    0
  9
$DIMJOGANG
 40
0.7854
  9
$DIMTFILL
 70
    0
  9
$DIMTFILLCLR
 70
    0
  9
$DIMARCSYM
 70
    0
  9
$DIMLTYPE
  6

  9
$DIMLTEX1
  6

  9
$DIMLTEX2
  6

  9
$LUNITS
 70
    2
  9
$LUPREC
 70
    4
  9
$SKETCHINC
 40
1
  9
$FILLETRAD
 40
0
  9
$AUNITS
 70
    0
  9
$AUPREC
 70
    2
  9
$MENU
  1
.
  9
$ELEVATION
 40
0
  9
$PELEVATION
 40
0
  9
$THICKNESS
 40
0
  9
$LIMCHECK
 70
    0
  9
$CHAMFERA
 40
0
  9
$CHAMFERB
 40
0
  9
$CHAMFERC
 40
0
  9
$CHAMFERD
 40
0
  9
$SKPOLY
 70
    0
  9
$USRTIMER
 70
    1
  9
$ANGBASE
 50
0
  9
$ANGDIR
 70
    0
  9
$PDMODE
 70
   34
  9
$PDSIZE
 40
0
  9
$PLINEWID
 40
0
  9
$SPLFRAME
 70
    0
  9
$SPLINETYPE
 70
    2
  9
$SPLINESEGS
 70
    8
  9
$HANDSEED
  5
20000
  9
$SURFTAB1
 70
    6
  9
$SURFTAB2
 70
    6
  9
$SURFTYPE
 70
    6
  9
$SURFU
 70
    6
  9
$SURFV
 70
    6
  9
$UCSBASE
  2

  9
$UCSNAME
  2

  9
$UCSORG
 10
0
 20
0
 30
0
  9
$UCSXDIR
 10
1
 20
0
 30
0
  9
$UCSYDIR
 10
0
 20
1
 30
0
  9
$UCSORTHOREF
  2

  9
$UCSORTHOVIEW
 70
    0
  9
$UCSORGTOP
 10
0
 20
0
 30
0
  9
$UCSORGBOTTOM
 10
0
 20
0
 30
0
  9
$UCSORGLEFT
 10
0
 20
0
 30
0
  9
$UCSORGRIGHT
 10
0
 20
0
 30
0
  9
$UCSORGFRONT
 10
0
 20
0
 30
0
  9
$UCSORGBACK
 10
0
 20
0
 30
0
  9
$PUCSBASE
  2

  9
$PUCSNAME
  2

  9
$PUCSORG
 10
0
 20
0
 30
0
  9
$PUCSXDIR
 10
1
 20
0
 30
0
  9
$PUCSYDIR
 10
0
 20
1
 30
0
  9
$PUCSORTHOREF
  2

  9
$PUCSORTHOVIEW
 70
    0
  9
$PUCSORGTOP
 10
0
 20
0
 30
0
  9
$PUCSORGBOTTOM
 10
0
 20
0
 30
0
  9
$PUCSORGLEFT
 10
0
 20
0
 30
0
  9
$PUCSORGRIGHT
 10
0
 20
0
 30
0
  9
$PUCSORGFRONT
 10
0
 20
0
 30
0
  9
$PUCSORGBACK
 10
0
 20
0
 30
0
  9
$USERI1
 70
    0
  9
$USERI2
 70
    0
  9
$USERI3
 70
    0
  9
$USERI4
 70
    0
  9
$USERI5
 70
    0
  9
$USERR1
 40
0
  9
$USERR2
 40
0
  9
$USERR3
 40
0
  9
$USERR4
 40
0
  9
$USERR5
 40
0
  9
$WORLDVIEW
 70
    1
  9
$SHADEDGE
 70
    3
  9
$SHADEDIF
 70
   70
  9
$TILEMODE
 70
    1
  9
$MAXACTVP
 70
   64
  9
$PINSBASE
 10
0
 20
0
 30
0
  9
$PLIMCHECK
 70
    0
  9
$PEXTMIN
 10
0
 20
0
 30
0
  9
$PEXTMAX
 10
0
 20
0
 30
0
  9
$GRIDMODE
 70
    1
  9
$SNAPSTYLE
 70
    0
  9
$PLIMMIN
 10
0
 20
0
  9
$PLIMMAX
 10
297
 20
420
  9
$UNITMODE
 70
    0
  9
$VISRETAIN
 70
    1
  9
$PLINEGEN
 70
    0
  9
$PSLTSCALE
 70
    1
  9
$TREEDEPTH
 70
 3020
  9
$CMLSTYLE
  2
Standard
  9
$CMLJUST
 70
    0
  9
$CMLSCALE
 40
20
  9
$PROXYGRAPHICS
 70
    1
  9
$MEASUREMENT
 70
    1
  9
$CELWEIGHT
370
   -1
  9
$ENDCAPS
280
    0
  9
$JOINSTYLE
280
    0
  9
$LWDISPLAY
290
    0
  9
$INSUNITS
 70
    4
  9
$HYPERLINKBASE
  1

  9
$STYLESHEET
  1

  9
$XEDIT
290
    1
  9
$CEPSNTYPE
380
    0
  9
$PSTYLEMODE
290
    1
  9
$EXTNAMES
290
    1
  9
$PSVPSCALE
 40
1
  9
$OLESTARTUP
290
    0
  9
$SORTENTS
280
  127
  9
$INDEXCTL
280
    0
  9
$HIDETEXT
280
    1
  9
$XCLIPFRAME
290
    0
  9
$HALOGAP
280
    0
  9
$OBSCOLOR
 70
  257
  9
$OBSLTYPE
280
    0
  9
$INTERSECTIONDISPLAY
280
    0
  9
$INTERSECTIONCOLOR
 70
  257
  9
$DIMASSOC
280
    1
  9
$PROJECTNAME
  1

  9
$CAMERADISPLAY
290
    0
  9
$LENSLENGTH
 40
50
  9
$CAMERAHEIGHT
 40
0
  9
$STEPSPERSEC
 40
2
  9
$STEPSIZE
 40
50
  9
$3DDWFPREC
 40
2
  9
$PSOLWIDTH
 40
5
  9
$PSOLHEIGHT
 40
80
  9
$LOFTANG1
 40
1.570796326794897
  9
$LOFTANG2
 40
1.570796326794897
  9
$LOFTMAG1
 40
0
  9
$LOFTMAG2
 40
0
  9
$LOFTPARAM
 70
    7
  9
$LOFTNORMALS
280
    1
  9
$LATITUDE
 40
1
  9
$LONGITUDE
 40
1
  9
$NORTHDIRECTION
 40
0
  9
$TIMEZONE
 70
-8000
  9
$LIGHTGLYPHDISPLAY
280
    1
  9
$TILEMODELIGHTSYNCH
280
    1
  9
$SOLIDHIST
280
    1
  9
$SHOWHIST
280
    1
  9
$DWFFRAME
280
    2
  9
$DGNFRAME
280
    0
  9
$REALWORLDSCALE
290
    1
  9
$INTERFERECOLOR
 62
    1
  9
$CSHADOW
280
    0
  9
$SHADOWPLANELOCATION
 40
0
  0
ENDSEC
  0
SECTION
  2
CLASSES
  0
ENDSEC
  0
SECTION
  2
TABLES
  0
TABLE
  2
VPORT
  5
8
330
0
100
AcDbSymbolTable
 70
    1
  0
VPORT
  5
31
330
2
100
AcDbSymbolTableRecord
100
AcDbViewportTableRecord
  2
*ACTIVE
 70
    0
 10
0
 20
0
 11
1
 21
1
 12
256.0048262548262
 22
151.3667953667954
 13
0
 23
0
 14
10
 24
10
 15
10
 25
10
 16
0
 26
0
 36
1
 17
0
 27
0
 37
0
 40
308.4671814671814
 41
1.95724907063197
 42
50
 43
0
 44
0
 50
0
 51
0
 71
    0
 72
  100
 73
    1
 74
    3
 75
    0
 76
    1
 77
    0
 78
    0
281
    0
 65
    1
110
0
120
0
130
0
111
1
121
0
131
0
112
0
122
1
132
0
 79
    0
146
0
348
10020
 60
    7
 61
    5
292
1
282
    1
141
0
142
0
 63
  250
421
3358443
  0
ENDTAB
  0
TABLE
  2
LTYPE
  5
5
330
0
100
AcDbSymbolTable
 70
    4
  0
LTYPE
  5
14
330
5
100
AcDbSymbolTableRecord
100
AcDbLinetypeTableRecord
  2
ByBlock
 70
    0
  3

 72
   65
 73
    0
 40
0
  0
LTYPE
  5
15
330
5
100
AcDbSymbolTableRecord
100
AcDbLinetypeTableRecord
  2
ByLayer
 70
    0
  3

 72
   65
 73
    0
 40
0
  0
LTYPE
  5
16
330
5
100
AcDbSymbolTableRecord
100
AcDbLinetypeTableRecord
  2
Continuous
 70
    0
  3
Solid line
 72
   65
 73
    0
 40
0
  0
LTYPE
  5
32
330
5
100
AcDbSymbolTableRecord
100
AcDbLinetypeTableRecord
  2
DOT
 70
    0
  3
Dot . . . . . . . . . . . . . . . . . . . . . .
 72
   65
 73
    2
 40
6.35
 49
0
 74
    0
 49
-6.35
 74
    0
  0
LTYPE
  5
33
330
5
100
AcDbSymbolTableRecord
100
AcDbLinetypeTableRecord
  2
DOTTINY
 70
    0
  3
Dot (.15x) .....................................
 72
   65
 73
    2
 40
0.9525
 49
0
 74
    0
 49
-0.9525
 74
    0
  0
LTYPE
  5
34
330
5
100
AcDbSymbolTableRecord
100
AcDbLinetypeTableRecord
  2
DOT2
 70
    0
  3
Dot (.5x) .....................................
 72
   65
 73
    2
 40
3.175
 49
0
 74
    0
 49
-3.175
 74
    0
  0
LTYPE
  5
35
330
5
100
AcDbSymbolTableRecord
100
AcDbLinetypeTableRecord
  2
DOTX2
 70
    0
  3
Dot (2x) .  .  .  .  .  .  .  .  .  .  .  .  .
 72
   65
 73
    2
 40
12.7
 49
0
 74
    0
 49
-12.7
 74
    0
  0
LTYPE
  5
36
330
5
100
AcDbSymbolTableRecord
100
AcDbLinetypeTableRecord
  2
DASHED
 70
    0
  3
Dashed _ _ _ _ _ _ _ _ _ _ _ _ _ _ _ _ _
 72
   65
 73
    2
 40
19.05
 49
12.7
 74
    0
 49
-6.35
 74
    0
  0
LTYPE
  5
37
330
5
100
AcDbSymbolTableRecord
100
AcDbLinetypeTableRecord
  2
DASHEDTINY
 70
    0
  3
Dashed (.15x) _ _ _ _ _ _ _ _ _ _ _ _ _ _ _ _ _
 72
   65
 73
    2
 40
2.8575
 49
1.905
 74
    0
 49
-0.9525
 74
    0
  0
LTYPE
  5
38
330
5
100
AcDbSymbolTableRecord
100
AcDbLinetypeTableRecord
  2
DASHED2
 70
    0
  3
Dashed (.5x) _ _ _ _ _ _ _ _ _ _ _ _ _ _ _ _ _
 72
   65
 73
    2
 40
9.524999999999999
 49
6.35
 74
    0
 49
-3.175
 74
    0
  0
LTYPE
  5
39
330
5
100
AcDbSymbolTableRecord
100
AcDbLinetypeTableRecord
  2
DASHEDX2
 70
    0
  3
Dashed (2x) ____  ____  ____  ____  ____  ___
 72
   65
 73
    2
 40
38.09999999999999
 49
25.4
 74
    0
 49
-12.7
 74
    0
  0
LTYPE
  5
3A
330
5
100
AcDbSymbolTableRecord
100
AcDbLinetypeTableRecord
  2
DASHDOT
 70
    0
  3
Dash dot __ . __ . __ . __ . __ . __ . __ . __
 72
   65
 73
    4
 40
25.4
 49
12.7
 74
    0
 49
-6.35
 74
    0
 49
0
 74
    0
 49
-6.35
 74
    0
  0
LTYPE
  5
3B
330
5
100
AcDbSymbolTableRecord
100
AcDbLinetypeTableRecord
  2
DASHDOTTINY
 70
    0
  3
Dash dot (.15x) _._._._._._._._._._._._._._._.
 72
   65
 73
    4
 40
3.81
 49
1.905
 74
    0
 49
-0.9525
 74
    0
 49
0
 74
    0
 49
-0.9525
 74
    0
  0
LTYPE
  5
3C
330
5
100
AcDbSymbolTableRecord
100
AcDbLinetypeTableRecord
  2
DASHDOT2
 70
    0
  3
Dash dot (.5x) _._._._._._._._._._._._._._._.
 72
   65
 73
    4
 40
12.7
 49
6.35
 74
    0
 49
-3.175
 74
    0
 49
0
 74
    0
 49
-3.175
 74
    0
  0
LTYPE
  5
3D
330
5
100
AcDbSymbolTableRecord
100
AcDbLinetypeTableRecord
  2
DASHDOTX2
 70
    0
  3
Dash dot (2x) ____  .  ____  .  ____  .  ___
 72
   65
 73
    4
 40
50.8
 49
25.4
 74
    0
 49
-12.7
 74
    0
 49
0
 74
    0
 49
-12.7
 74
    0
  0
LTYPE
  5
3E
330
5
100
AcDbSymbolTableRecord
100
AcDbLinetypeTableRecord
  2
DIVIDE
 70
    0
  3
Divide ____ . . ____ . . ____ . . ____ . . ____
 72
   65
 73
    6
 40
31.75
 49
12.7
 74
    0
 49
-6.35
 74
    0
 49
0
 74
    0
 49
-6.35
 74
    0
 49
0
 74
    0
 49
-6.35
 74
    0
  0
LTYPE
  5
3F
330
5
100
AcDbSymbolTableRecord
100
AcDbLinetypeTableRecord
  2
DIVIDETINY
 70
    0
  3
Divide (.15x) __..__..__..__..__..__..__..__.._
 72
   65
 73
    6
 40
4.7625
 49
1.905
 74
    0
 49
-0.9525
 74
    0
 49
0
 74
    0
 49
-0.9525
 74
    0
 49
0
 74
    0
 49
-0.9525
 74
    0
  0
LTYPE
  5
40
330
5
100
AcDbSymbolTableRecord
100
AcDbLinetypeTableRecord
  2
DIVIDE2
 70
    0
  3
Divide (.5x) __..__..__..__..__..__..__..__.._
 72
   65
 73
    6
 40
15.875
 49
6.35
 74
    0
 49
-3.175
 74
    0
 49
0
 74
    0
 49
-3.175
 74
    0
 49
0
 74
    0
 49
-3.175
 74
    0
  0
LTYPE
  5
41
330
5
100
AcDbSymbolTableRecord
100
AcDbLinetypeTableRecord
  2
DIVIDEX2
 70
    0
  3
Divide (2x) ________  .  .  ________  .  .  _
 72
   65
 73
    6
 40
63.5
 49
25.4
 74
    0
 49
-12.7
 74
    0
 49
0
 74
    0
 49
-12.7
 74
    0
 49
0
 74
    0
 49
-12.7
 74
    0
  0
LTYPE
  5
42
330
5
100
AcDbSymbolTableRecord
100
AcDbLinetypeTableRecord
  2
BORDER
 70
    0
  3
Border __ __ . __ __ . __ __ . __ __ . __ __ .
 72
   65
 73
    6
 40
44.45
 49
12.7
 74
    0
 49
-6.35
 74
    0
 49
12.7
 74
    0
 49
-6.35
 74
    0
 49
0
 74
    0
 49
-6.35
 74
    0
  0
LTYPE
  5
43
330
5
100
AcDbSymbolTableRecord
100
AcDbLinetypeTableRecord
  2
BORDERTINY
 70
    0
  3
Border (.15x) __.__.__.__.__.__.__.__.__.__.__.
 72
   65
 73
    6
 40
6.6675
 49
1.905
 74
    0
 49
-0.9525
 74
    0
 49
1.905
 74
    0
 49
-0.9525
 74
    0
 49
0
 74
    0
 49
-0.9525
 74
    0
  0
LTYPE
  5
44
330
5
100
AcDbSymbolTableRecord
100
AcDbLinetypeTableRecord
  2
BORDER2
 70
    0
  3
Border (.5x) __.__.__.__.__.__.__.__.__.__.__.
 72
   65
 73
    6
 40
22.225
 49
6.35
 74
    0
 49
-3.175
 74
    0
 49
6.35
 74
    0
 49
-3.175
 74
    0
 49
0
 74
    0
 49
-3.175
 74
    0
  0
LTYPE
  5
45
330
5
100
AcDbSymbolTableRecord
100
AcDbLinetypeTableRecord
  2
BORDERX2
 70
    0
  3
Border (2x) ____  ____  .  ____  ____  .  ___
 72
   65
 73
    6
 40
88.89999999999999
 49
25.4
 74
    0
 49
-12.7
 74
    0
 49
25.4
 74
    0
 49
-12.7
 74
    0
 49
0
 74
    0
 49
-12.7
 74
    0
  0
LTYPE
  5
46
330
5
100
AcDbSymbolTableRecord
100
AcDbLinetypeTableRecord
  2
CENTER
 70
    0
  3
Center ____ _ ____ _ ____ _ ____ _ ____ _ ____
 72
   65
 73
    4
 40
50.8
 49
31.75
 74
    0
 49
-6.35
 74
    0
 49
6.35
 74
    0
 49
-6.35
 74
    0
  0
LTYPE
  5
47
330
5
100
AcDbSymbolTableRecord
100
AcDbLinetypeTableRecord
  2
CENTERTINY
 70
    0
  3
Center (.15x) ___ _ ___ _ ___ _ ___ _ ___ _ ___
 72
   65
 73
    4
 40
7.62
 49
4.7625
 74
    0
 49
-0.9525
 74
    0
 49
0.9525
 74
    0
 49
-0.9525
 74
    0
  0
LTYPE
  5
48
330
5
100
AcDbSymbolTableRecord
100
AcDbLinetypeTableRecord
  2
CENTER2
 70
    0
  3
Center (.5x) ___ _ ___ _ ___ _ ___ _ ___ _ ___
 72
   65
 73
    4
 40
28.575
 49
19.05
 74
    0
 49
-3.175
 74
    0
 49
3.175
 74
    0
 49
-3.175
 74
    0
  0
LTYPE
  5
49
330
5
100
AcDbSymbolTableRecord
100
AcDbLinetypeTableRecord
  2
CENTERX2
 70
    0
  3
Center (2x) ________  __  ________  __  _____
 72
   65
 73
    4
 40
101.6
 49
63.5
 74
    0
 49
-12.7
 74
    0
 49
12.7
 74
    0
 49
-12.7
 74
    0
  0
ENDTAB
  0
TABLE
  2
LAYER
  5
2
330
0
100
AcDbSymbolTable
 70
    1
  0
LAYER
  5
10
330
2
100
AcDbSymbolTableRecord
100
AcDbLayerTableRecord
  2
0
 70
    0
 62
    7
  6
CONTINUOUS
370
    0
390
F
1001
LibreCad
1070
    1
  0
LAYER
  5
4A
330
2
100
AcDbSymbolTableRecord
100
AcDbLayerTableRecord
  2
I-CABO
 70
    0
 62
    7
  6
CONTINUOUS
370
    0
390
F
  0
LAYER
  5
4B
330
2
100
AcDbSymbolTableRecord
100
AcDbLayerTableRecord
  2
I-INSTR
 70
    0
 62
    7
  6
CONTINUOUS
370
    0
390
F
  0
LAYER
  5
4C
330
2
100
AcDbSymbolTableRecord
100
AcDbLayerTableRecord
  2
I-TEXTO2
 70
    0
 62
    7
  6
CONTINUOUS
370
    0
390
F
  0
LAYER
  5
4D
330
2
100
AcDbSymbolTableRecord
100
AcDbLayerTableRecord
  2
PADRAO2
 70
    0
 62
    7
  6
CONTINUOUS
370
    0
390
F
  0
LAYER
  5
4E
330
2
100
AcDbSymbolTableRecord
100
AcDbLayerTableRecord
  2
cabo
 70
    0
 62
    1
  6
CONTINUOUS
370
   35
390
F
  0
LAYER
  5
4F
330
2
100
AcDbSymbolTableRecord
100
AcDbLayerTableRecord
  2
eqp
 70
    0
 62
    2
  6
CONTINUOUS
370
   25
390
F
  0
LAYER
  5
50
330
2
100
AcDbSymbolTableRecord
100
AcDbLayerTableRecord
  2
padrao
 70
    0
 62
    7
  6
CONTINUOUS
370
    0
390
F
  0
LAYER
  5
51
330
2
100
AcDbSymbolTableRecord
100
AcDbLayerTableRecord
  2
senhas
 70
    0
 62
    4
  6
CONTINUOUS
370
   35
390
F
  0
ENDTAB
  0
TABLE
  2
STYLE
  5
3
330
0
100
AcDbSymbolTable
 70
    3
  0
STYLE
  5
52
330
2
100
AcDbSymbolTableRecord
100
AcDbTextStyleTableRecord
  2
standard
 70
    0
 40
0
 41
1
 50
0
 71
    0
 42
1
  3
standard
  4

  0
STYLE
  5
53
330
2
100
AcDbSymbolTableRecord
100
AcDbTextStyleTableRecord
  2
style-standard
 70
    0
 40
0
 41
1
 50
0
 71
    0
 42
1
  3
style-standard
  4

  0
ENDTAB
  0
TABLE
  2
VIEW
  5
6
330
0
100
AcDbSymbolTable
 70
    0
  0
ENDTAB
  0
TABLE
  2
UCS
  5
7
330
0
100
AcDbSymbolTable
 70
    0
  0
ENDTAB
  0
TABLE
  2
APPID
  5
9
330
0
100
AcDbSymbolTable
 70
    1
  0
APPID
  5
12
330
9
100
AcDbSymbolTableRecord
100
AcDbRegAppTableRecord
  2
ACAD
 70
    0
  0
APPID
  5
54
330
9
100
AcDbSymbolTableRecord
100
AcDbRegAppTableRecord
  2
LibreCad
 70
    0
  0
ENDTAB
  0
TABLE
  2
DIMSTYLE
  5
A
330
0
100
AcDbSymbolTable
 70
    1
100
AcDbDimStyleTable
 71
    1
  0
DIMSTYLE
105
55
330
A
100
AcDbSymbolTableRecord
100
AcDbDimStyleTableRecord
  2
Standard
 70
    0
 40
2.5
 41
2.5
 42
0.625
 43
0.38
 44
1.25
 45
0
 46
0
 47
0
 48
0
 49
1
140
2.5
141
0.09
142
0
143
25.4
144
1
145
0
146
1
147
0.625
148
0
 71
    0
 72
    0
 73
    0
 74
    1
 75
    0
 76
    0
 77
    0
 78
    8
 79
    0
170
    0
171
    2
172
    0
173
    0
174
    0
175
    0
176
    0
177
    0
178
    0
179
    0
271
    2
272
    4
273
    2
274
    2
275
    0
276
    0
277
    2
278
   44
279
    0
280
    0
281
    0
282
    0
283
    1
284
    0
285
    0
286
    0
288
    0
289
    3
340
STANDARD
341

371
   -2
372
   -2
  0
ENDTAB
  0
TABLE
  2
BLOCK_RECORD
  5
1
330
0
100
AcDbSymbolTable
 70
    2
  0
BLOCK_RECORD
  5
1F
330
1
100
AcDbSymbolTableRecord
100
AcDbBlockTableRecord
  2
*Model_Space
 70
    0
280
    1
281
    0
  0
BLOCK_RECORD
  5
1E
330
1
100
AcDbSymbolTableRecord
100
AcDbBlockTableRecord
  2
*Paper_Space
 70
    0
280
    1
281
    0
  0
BLOCK_RECORD
  5
56
330
1
100
AcDbSymbolTableRecord
100
AcDbBlockTableRecord
  2
A3
 70
    0
280
    1
281
    0
  0
ENDTAB
  0
ENDSEC
  0
SECTION
  2
BLOCKS
  0
BLOCK
  5
20
330
1F
100
AcDbEntity
  8
0
100
AcDbBlockBegin
  2
*Model_Space
 70
    0
 10
0
 20
0
 30
0
  3
*Model_Space
  1

  0
ENDBLK
  5
21
330
1F
100
AcDbEntity
  8
0
100
AcDbBlockEnd
  0
BLOCK
  5
1C
330
1B
100
AcDbEntity
  8
0
100
AcDbBlockBegin
  2
*Paper_Space
 70
    0
 10
0
 20
0
 30
0
  3
*Paper_Space
  1

  0
ENDBLK
  5
1D
330
1F
100
AcDbEntity
  8
0
100
AcDbBlockEnd
  0
BLOCK
  5
57
330
56
100
AcDbEntity
  8
0
100
AcDbBlockBegin
  2
A3
 70
    0
 10
0
 20
0
  3
A3
  1

  0
LWPOLYLINE
  5
59
100
AcDbEntity
  8
padrao
  6
ByLayer
 62
  256
370
   -1
100
AcDbPolyline
 90
    4
 70
    1
 43
0
 10
0
 20
0
 10
420
 20
0
 10
420
 20
297
 10
0
 20
297
  0
LWPOLYLINE
  5
5A
100
AcDbEntity
  8
padrao
  6
CONTINUOUS
 62
    2
370
   -1
100
AcDbPolyline
 90
    4
 70
    1
 43
0
 10
413
 20
7
 10
235
 20
7
 10
235
 20
42
 10
413
 20
42
  0
LWPOLYLINE
  5
5B
100
AcDbEntity
  8
padrao
  6
CONTINUOUS
 62
    2
370
   -1
100
AcDbPolyline
 90
    4
 70
    1
 43
0
 10
25
 20
7
 10
413
 20
7
 10
413
 20
290
 10
25
 20
290
  0
LINE
  5
5C
100
AcDbEntity
  8
padrao
  6
CONTINUOUS
 62
    2
370
   -1
100
AcDbLine
 10
130
 20
290.2354902877677
 11
130
 21
297
  0
LINE
  5
5D
100
AcDbEntity
  8
padrao
  6
CONTINUOUS
 62
    2
370
   -1
100
AcDbLine
 10
130
 20
0
 11
130
 21
6.932219963835827
  0
LINE
  5
5E
100
AcDbEntity
  8
padrao
  6
CONTINUOUS
 62
    2
370
   -1
100
AcDbLine
 10
235
 20
290.2354902877677
 11
235
 21
297
  0
LINE
  5
5F
100
AcDbEntity
  8
padrao
  6
CONTINUOUS
 62
    2
370
   -1
100
AcDbLine
 10
235
 20
0
 11
235
 21
6.932219963835827
  0
LINE
  5
60
100
AcDbEntity
  8
padrao
  6
CONTINUOUS
 62
    7
370
   -1
100
AcDbLine
 10
0
 20
148.5
 11
17.5
 21
148.5
  0
ENDBLK
  5
58
330
56
100
AcDbEntity
  8
0
100
AcDbBlockEnd
  0
ENDSEC
  0
SECTION
  2
ENTITIES
  0
INSERT
  5
61
100
AcDbEntity
  8
0
  6
CONTINUOUS
 62
    7
370
   -1
100
AcDbBlockReference
  2
A3
 10
0
 20
0
 30
0
 41
1
 42
1
 43
0
 50
0
 70
    1
 71
    1
 44
0
 45
0
  0
TEXT
  5
62
100
AcDbEntity
  8
I-TEXTO2
  6
ByLayer
 62
  256
370
   -1
100
AcDbText
 10
198.4914
 20
267.9841
 30
0
 40
3
  1
REMOTE UNIT
 50
0
 41
1
 51
0
  7
style-standard
 71
    0
210
0
220
0
230
1
100
AcDbText
  0
TEXT
  5
63
100
AcDbEntity
  8
I-TEXTO2
  6
ByLayer
 62
  256
370
   -1
100
AcDbText
 10
55.79089999999997
 20
267.7942
 30
0
 40
3
  1
INSTRUMENT
 50
0
 41
1
 51
0
  7
style-standard
 71
    0
210
0
220
0
230
1
100
AcDbText
  0
LINE
  5
64
100
AcDbEntity
  8
I-CABO
  6
ByLayer
 62
  256
370
   -1
100
AcDbLine
 10
77.87796700000001
 20
243.493587
 11
77.87796700000001
 21
248.493587
  0
LINE
  5
65
100
AcDbEntity
  8
I-CABO
  6
ByLayer
 62
  256
370
   -1
100
AcDbLine
 10
162.69712
 20
238.351728
 11
162.69712
 21
244.31764
  0
LINE
  5
66
100
AcDbEntity
  8
I-CABO
  6
ByLayer
 62
  256
370
   -1
100
AcDbLine
 10
133.515082
 20
238.351728
 11
133.515082
 21
244.31764
  0
LINE
  5
67
100
AcDbEntity
  8
I-CABO
  6
ByLayer
 62
  256
370
   -1
100
AcDbLine
 10
196.111985
 20
235.122037
 11
196.111985
 21
244.062742
  0
LINE
  5
68
100
AcDbEntity
  8
I-CABO
  6
ByLayer
 62
  256
370
   -1
100
AcDbLine
 10
177.686928
 20
244.373106
 11
177.686928
 21
224.989134
  0
LINE
  5
69
100
AcDbEntity
  8
I-CABO
  6
ByLayer
 62
  256
370
   -1
100
AcDbLine
 10
107.7393039999999
 20
244.603742
 11
107.7393039999999
 21
235.59213
  0
LINE
  5
6A
100
AcDbEntity
  8
I-CABO
  6
ByLayer
 62
  256
370
   -1
100
AcDbLine
 10
134.604204
 20
224.989134
 11
177.686928
 21
224.989134
  0
LINE
  5
6B
100
AcDbEntity
  8
I-CABO
  6
ByLayer
 62
  256
370
   -1
100
AcDbLine
 10
82.97956899999997
 20
235.59213
 11
107.7393039999999
 21
235.59213
  0
LINE
  5
6C
100
AcDbEntity
  8
I-CABO
  6
ByLayer
 62
  256
370
   -1
100
AcDbLine
 10
141.843481
 20
238.351728
 11
133.515082
 21
238.351728
  0
LINE
  5
6D
100
AcDbEntity
  8
I-CABO
  6
ByLayer
 62
  256
370
   -1
100
AcDbLine
 10
162.69712
 20
238.351728
 11
154.9416269999999
 21
238.351728
  0
LINE
  5
6E
100
AcDbEntity
  8
I-CABO
  6
ByLayer
 62
  256
370
   -1
100
AcDbLine
 10
193.802582
 20
235.122037
 11
198.421387
 21
235.122037
  0
LINE
  5
6F
100
AcDbEntity
  8
I-CABO
  6
ByLayer
 62
  256
370
   -1
100
AcDbLine
 10
194.4166869999999
 20
233.69383
 11
197.7282869999999
 21
233.69383
  0
LINE
  5
70
100
AcDbEntity
  8
I-CABO
  6
ByLayer
 62
  256
370
   -1
100
AcDbLine
 10
196.091675
 20
231.159132
 11
196.133484
 21
231.159132
  0
LINE
  5
71
100
AcDbEntity
  8
I-CABO
  6
ByLayer
 62
  256
370
   -1
100
AcDbLine
 10
195.534684
 20
232.122037
 11
196.6893769999999
 21
232.122037
  0
TEXT
  5
72
100
AcDbEntity
  8
I-TEXTO2
  6
ByLayer
 62
  256
370
   -1
100
AcDbText
 10
132.3927
 20
267.9234
 30
0
 40
3
  1
PANEL / J.BOX
 50
0
 41
1
 51
0
  7
style-standard
 71
    0
210
0
220
0
230
1
100
AcDbText
  0
ARC
  5
73
100
AcDbEntity
  8
I-CABO
  6
ByLayer
 62
  256
370
   -1
100
AcDbCircle
 10
81.90437999999995
 20
244.117382
 40
0.326228
100
AcDbArc
 50
226.541406
 51
270.000001
  0
ARC
  5
74
100
AcDbEntity
  8
I-CABO
  6
ByLayer
 62
  256
370
   -1
100
AcDbCircle
 10
82.45833500000003
 20
244.701885
 40
1.131716
100
AcDbArc
 50
210.869701
 51
226.541406
  0
ARC
  5
75
100
AcDbEntity
  8
I-CABO
  6
ByLayer
 62
  256
370
   -1
100
AcDbCircle
 10
79.021747
 20
245.353481
 40
3.565539
100
AcDbArc
 50
0
 51
6.660495
  0
ARC
  5
76
100
AcDbEntity
  8
I-CABO
  6
ByLayer
 62
  256
370
   -1
100
AcDbCircle
 10
79.021747
 20
245.353481
 40
3.565539
100
AcDbArc
 50
350.709587
 51
0
  0
ARC
  5
77
100
AcDbEntity
  8
I-CABO
  6
ByLayer
 62
  256
370
   -1
100
AcDbCircle
 10
81.35024599999997
 20
244.701885
 40
1.131716
100
AcDbArc
 50
313.458609
 51
329.130287
  0
ARC
  5
78
100
AcDbEntity
  8
I-CABO
  6
ByLayer
 62
  256
370
   -1
100
AcDbCircle
 10
81.90437999999995
 20
244.117382
 40
0.326228
100
AcDbArc
 50
270.000001
 51
313.458609
  0
ARC
  5
79
100
AcDbEntity
  8
I-CABO
  6
ByLayer
 62
  256
370
   -1
100
AcDbCircle
 10
84.78694899999994
 20
245.353481
 40
3.565539
100
AcDbArc
 50
180.000005
 51
189.290401
  0
ARC
  5
7A
100
AcDbEntity
  8
I-CABO
  6
ByLayer
 62
  256
370
   -1
100
AcDbCircle
 10
84.78694899999994
 20
245.353481
 40
3.565539
100
AcDbArc
 50
173.339505
 51
180.000005
  0
LINE
  5
7B
100
AcDbEntity
  8
I-CABO
  6
ByLayer
 62
  256
370
   -1
100
AcDbLine
 10
81.87038399999994
 20
241.888179
 11
82.18587400000001
 21
241.575283
  0
LINE
  5
7C
100
AcDbEntity
  8
I-CABO
  6
ByLayer
 62
  256
370
   -1
100
AcDbLine
 10
81.58705899999995
 20
242.105281
 11
81.87038399999994
 21
241.888179
  0
LINE
  5
7D
100
AcDbEntity
  8
I-CABO
  6
ByLayer
 62
  256
370
   -1
100
AcDbLine
 10
81.33473500000002
 20
242.238277
 11
81.58705899999995
 21
242.105281
  0
LINE
  5
7E
100
AcDbEntity
  8
I-CABO
  6
ByLayer
 62
  256
370
   -1
100
AcDbLine
 10
81.11263599999995
 20
242.29948
 11
81.33473500000002
 21
242.238277
  0
LINE
  5
7F
100
AcDbEntity
  8
I-CABO
  6
ByLayer
 62
  256
370
   -1
100
AcDbLine
 10
80.919578
 20
242.30038
 11
81.11263599999995
 21
242.29948
  0
LINE
  5
80
100
AcDbEntity
  8
I-CABO
  6
ByLayer
 62
  256
370
   -1
100
AcDbLine
 10
80.75447799999995
 20
242.253078
 11
80.919578
 21
242.30038
  0
LINE
  5
81
100
AcDbEntity
  8
I-CABO
  6
ByLayer
 62
  256
370
   -1
100
AcDbLine
 10
80.61623699999996
 20
242.169582
 11
80.75447799999995
 21
242.253078
  0
LINE
  5
82
100
AcDbEntity
  8
I-CABO
  6
ByLayer
 62
  256
370
   -1
100
AcDbLine
 10
80.50404700000001
 20
242.061779
 11
80.61623699999996
 21
242.169582
  0
LINE
  5
83
100
AcDbEntity
  8
I-CABO
  6
ByLayer
 62
  256
370
   -1
100
AcDbLine
 10
80.41695700000002
 20
241.939876
 11
80.50404700000001
 21
242.061779
  0
LINE
  5
84
100
AcDbEntity
  8
I-CABO
  6
ByLayer
 62
  256
370
   -1
100
AcDbLine
 10
80.35445700000002
 20
241.808986
 11
80.41695700000002
 21
241.939876
  0
LINE
  5
85
100
AcDbEntity
  8
I-CABO
  6
ByLayer
 62
  256
370
   -1
100
AcDbLine
 10
80.31654700000001
 20
241.672283
 11
80.35445700000002
 21
241.808986
  0
LINE
  5
86
100
AcDbEntity
  8
I-CABO
  6
ByLayer
 62
  256
370
   -1
100
AcDbLine
 10
80.30305799999996
 20
241.532787
 11
80.31654700000001
 21
241.672283
  0
LINE
  5
87
100
AcDbEntity
  8
I-CABO
  6
ByLayer
 62
  256
370
   -1
100
AcDbLine
 10
80.31374699999992
 20
241.394084
 11
80.30305799999996
 21
241.532787
  0
LINE
  5
88
100
AcDbEntity
  8
I-CABO
  6
ByLayer
 62
  256
370
   -1
100
AcDbLine
 10
80.34847600000001
 20
241.25938
 11
80.31374699999992
 21
241.394084
  0
LINE
  5
89
100
AcDbEntity
  8
I-CABO
  6
ByLayer
 62
  256
370
   -1
100
AcDbLine
 10
80.40706599999999
 20
241.131877
 11
80.34847600000001
 21
241.25938
  0
LINE
  5
8A
100
AcDbEntity
  8
I-CABO
  6
ByLayer
 62
  256
370
   -1
100
AcDbLine
 10
80.48933699999998
 20
241.01498
 11
80.40706599999999
 21
241.131877
  0
LINE
  5
8B
100
AcDbEntity
  8
I-CABO
  6
ByLayer
 62
  256
370
   -1
100
AcDbLine
 10
80.59438699999998
 20
240.911281
 11
80.48933699999998
 21
241.01498
  0
LINE
  5
8C
100
AcDbEntity
  8
I-CABO
  6
ByLayer
 62
  256
370
   -1
100
AcDbLine
 10
80.71864699999992
 20
240.821376
 11
80.59438699999998
 21
240.911281
  0
LINE
  5
8D
100
AcDbEntity
  8
I-CABO
  6
ByLayer
 62
  256
370
   -1
100
AcDbLine
 10
80.85786799999994
 20
240.745479
 11
80.71864699999992
 21
240.821376
  0
LINE
  5
8E
100
AcDbEntity
  8
I-CABO
  6
ByLayer
 62
  256
370
   -1
100
AcDbLine
 10
81.00758699999994
 20
240.683177
 11
80.85786799999994
 21
240.745479
  0
LINE
  5
8F
100
AcDbEntity
  8
I-CABO
  6
ByLayer
 62
  256
370
   -1
100
AcDbLine
 10
81.16347799999994
 20
240.634777
 11
81.00758699999994
 21
240.683177
  0
LINE
  5
90
100
AcDbEntity
  8
I-CABO
  6
ByLayer
 62
  256
370
   -1
100
AcDbLine
 10
81.32124699999997
 20
240.600276
 11
81.16347799999994
 21
240.634777
  0
LINE
  5
91
100
AcDbEntity
  8
I-CABO
  6
ByLayer
 62
  256
370
   -1
100
AcDbLine
 10
81.47664599999996
 20
240.579586
 11
81.32124699999997
 21
240.600276
  0
LINE
  5
92
100
AcDbEntity
  8
I-CABO
  6
ByLayer
 62
  256
370
   -1
100
AcDbLine
 10
81.62526700000001
 20
240.572582
 11
81.47664599999996
 21
240.579586
  0
LINE
  5
93
100
AcDbEntity
  8
I-CABO
  6
ByLayer
 62
  256
370
   -1
100
AcDbLine
 10
81.76375499999995
 20
240.57928
 11
81.62526700000001
 21
240.572582
  0
LINE
  5
94
100
AcDbEntity
  8
I-CABO
  6
ByLayer
 62
  256
370
   -1
100
AcDbLine
 10
81.89174600000001
 20
240.598781
 11
81.76375499999995
 21
240.57928
  0
LINE
  5
95
100
AcDbEntity
  8
I-CABO
  6
ByLayer
 62
  256
370
   -1
100
AcDbLine
 10
82.01015399999994
 20
240.629482
 11
81.89174600000001
 21
240.598781
  0
LINE
  5
96
100
AcDbEntity
  8
I-CABO
  6
ByLayer
 62
  256
370
   -1
100
AcDbLine
 10
82.11959000000002
 20
240.670284
 11
82.01015399999994
 21
240.629482
  0
LINE
  5
97
100
AcDbEntity
  8
I-CABO
  6
ByLayer
 62
  256
370
   -1
100
AcDbLine
 10
82.22055
 20
240.72018
 11
82.11959000000002
 21
240.670284
  0
LINE
  5
98
100
AcDbEntity
  8
I-CABO
  6
ByLayer
 62
  256
370
   -1
100
AcDbLine
 10
82.31404799999996
 20
240.77798
 11
82.22055
 21
240.72018
  0
LINE
  5
99
100
AcDbEntity
  8
I-CABO
  6
ByLayer
 62
  256
370
   -1
100
AcDbLine
 10
82.40065700000002
 20
240.842082
 11
82.31404799999996
 21
240.77798
  0
LINE
  5
9A
100
AcDbEntity
  8
I-CABO
  6
ByLayer
 62
  256
370
   -1
100
AcDbLine
 10
82.48097899999993
 20
240.911678
 11
82.40065700000002
 21
240.842082
  0
LINE
  5
9B
100
AcDbEntity
  8
I-CABO
  6
ByLayer
 62
  256
370
   -1
100
AcDbLine
 10
82.555564
 20
240.985576
 11
82.48097899999993
 21
240.911678
  0
LINE
  5
9C
100
AcDbEntity
  8
I-CABO
  6
ByLayer
 62
  256
370
   -1
100
AcDbLine
 10
82.62387000000001
 20
241.063381
 11
82.555564
 21
240.985576
  0
LINE
  5
9D
100
AcDbEntity
  8
I-CABO
  6
ByLayer
 62
  256
370
   -1
100
AcDbLine
 10
82.68538599999999
 20
241.144481
 11
82.62387000000001
 21
241.063381
  0
LINE
  5
9E
100
AcDbEntity
  8
I-CABO
  6
ByLayer
 62
  256
370
   -1
100
AcDbLine
 10
82.73915799999997
 20
241.228679
 11
82.68538599999999
 21
241.144481
  0
LINE
  5
9F
100
AcDbEntity
  8
I-CABO
  6
ByLayer
 62
  256
370
   -1
100
AcDbLine
 10
82.78468999999996
 20
241.315685
 11
82.73915799999997
 21
241.228679
  0
LINE
  5
A0
100
AcDbEntity
  8
I-CABO
  6
ByLayer
 62
  256
370
   -1
100
AcDbLine
 10
82.821189
 20
241.405178
 11
82.78468999999996
 21
241.315685
  0
LINE
  5
A1
100
AcDbEntity
  8
I-CABO
  6
ByLayer
 62
  256
370
   -1
100
AcDbLine
 10
82.84804499999996
 20
241.496685
 11
82.821189
 21
241.405178
  0
LINE
  5
A2
100
AcDbEntity
  8
I-CABO
  6
ByLayer
 62
  256
370
   -1
100
AcDbLine
 10
82.86458500000003
 20
241.589885
 11
82.84804499999996
 21
241.496685
  0
LINE
  5
A3
100
AcDbEntity
  8
I-CABO
  6
ByLayer
 62
  256
370
   -1
100
AcDbLine
 10
82.87025399999993
 20
241.684581
 11
82.86458500000003
 21
241.589885
  0
LINE
  5
A4
100
AcDbEntity
  8
I-CABO
  6
ByLayer
 62
  256
370
   -1
100
AcDbLine
 10
82.86568399999999
 20
241.780178
 11
82.87025399999993
 21
241.684581
  0
LINE
  5
A5
100
AcDbEntity
  8
I-CABO
  6
ByLayer
 62
  256
370
   -1
100
AcDbLine
 10
82.85189000000003
 20
241.876583
 11
82.86568399999999
 21
241.780178
  0
LINE
  5
A6
100
AcDbEntity
  8
I-CABO
  6
ByLayer
 62
  256
370
   -1
100
AcDbLine
 10
82.82948999999996
 20
241.973186
 11
82.85189000000003
 21
241.876583
  0
LINE
  5
A7
100
AcDbEntity
  8
I-CABO
  6
ByLayer
 62
  256
370
   -1
100
AcDbLine
 10
82.79959099999996
 20
242.069881
 11
82.82948999999996
 21
241.973186
  0
LINE
  5
A8
100
AcDbEntity
  8
I-CABO
  6
ByLayer
 62
  256
370
   -1
100
AcDbLine
 10
82.76283999999998
 20
242.166286
 11
82.79959099999996
 21
242.069881
  0
LINE
  5
A9
100
AcDbEntity
  8
I-CABO
  6
ByLayer
 62
  256
370
   -1
100
AcDbLine
 10
82.72035899999992
 20
242.261882
 11
82.76283999999998
 21
242.166286
  0
LINE
  5
AA
100
AcDbEntity
  8
I-CABO
  6
ByLayer
 62
  256
370
   -1
100
AcDbLine
 10
82.67274399999997
 20
242.356487
 11
82.72035899999992
 21
242.261882
  0
LINE
  5
AB
100
AcDbEntity
  8
I-CABO
  6
ByLayer
 62
  256
370
   -1
100
AcDbLine
 10
82.62105499999996
 20
242.449581
 11
82.67274399999997
 21
242.356487
  0
LINE
  5
AC
100
AcDbEntity
  8
I-CABO
  6
ByLayer
 62
  256
370
   -1
100
AcDbLine
 10
82.565879
 20
242.540081
 11
82.62105499999996
 21
242.449581
  0
LINE
  5
AD
100
AcDbEntity
  8
I-CABO
  6
ByLayer
 62
  256
370
   -1
100
AcDbLine
 10
82.50827000000004
 20
242.626781
 11
82.565879
 21
242.540081
  0
LINE
  5
AE
100
AcDbEntity
  8
I-CABO
  6
ByLayer
 62
  256
370
   -1
100
AcDbLine
 10
82.44868399999996
 20
242.708477
 11
82.50827000000004
 21
242.626781
  0
LINE
  5
AF
100
AcDbEntity
  8
I-CABO
  6
ByLayer
 62
  256
370
   -1
100
AcDbLine
 10
82.38814500000001
 20
242.783977
 11
82.44868399999996
 21
242.708477
  0
LINE
  5
B0
100
AcDbEntity
  8
I-CABO
  6
ByLayer
 62
  256
370
   -1
100
AcDbLine
 10
82.32735400000001
 20
242.851985
 11
82.38814500000001
 21
242.783977
  0
LINE
  5
B1
100
AcDbEntity
  8
I-CABO
  6
ByLayer
 62
  256
370
   -1
100
AcDbLine
 10
82.26704399999994
 20
242.911479
 11
82.32735400000001
 21
242.851985
  0
LINE
  5
B2
100
AcDbEntity
  8
I-CABO
  6
ByLayer
 62
  256
370
   -1
100
AcDbLine
 10
82.20808399999999
 20
242.960979
 11
82.26704399999994
 21
242.911479
  0
LINE
  5
B3
100
AcDbEntity
  8
I-CABO
  6
ByLayer
 62
  256
370
   -1
100
AcDbLine
 10
82.15114499999993
 20
243.001277
 11
82.20808399999999
 21
242.960979
  0
LINE
  5
B4
100
AcDbEntity
  8
I-CABO
  6
ByLayer
 62
  256
370
   -1
100
AcDbLine
 10
82.09773999999993
 20
243.040279
 11
82.15114499999993
 21
243.001277
  0
LINE
  5
B5
100
AcDbEntity
  8
I-CABO
  6
ByLayer
 62
  256
370
   -1
100
AcDbLine
 10
82.04898000000003
 20
243.087581
 11
82.09773999999993
 21
243.040279
  0
LINE
  5
B6
100
AcDbEntity
  8
I-CABO
  6
ByLayer
 62
  256
370
   -1
100
AcDbLine
 10
82.00606500000004
 20
243.152584
 11
82.04898000000003
 21
243.087581
  0
LINE
  5
B7
100
AcDbEntity
  8
I-CABO
  6
ByLayer
 62
  256
370
   -1
100
AcDbLine
 10
81.97055
 20
243.245479
 11
82.00606500000004
 21
243.152584
  0
LINE
  5
B8
100
AcDbEntity
  8
I-CABO
  6
ByLayer
 62
  256
370
   -1
100
AcDbLine
 10
81.94356500000004
 20
243.375682
 11
81.97055
 21
243.245479
  0
LINE
  5
B9
100
AcDbEntity
  8
I-CABO
  6
ByLayer
 62
  256
370
   -1
100
AcDbLine
 10
81.92636099999993
 20
243.552883
 11
81.94356500000004
 21
243.375682
  0
LINE
  5
BA
100
AcDbEntity
  8
I-CABO
  6
ByLayer
 62
  256
370
   -1
100
AcDbLine
 10
81.92036399999995
 20
243.786586
 11
81.92636099999993
 21
243.552883
  0
ARC
  5
BB
100
AcDbEntity
  8
I-CABO
  6
ByLayer
 62
  256
370
   -1
100
AcDbCircle
 10
83.35628499999996
 20
245.612483
 40
2.111624
100
AcDbArc
 50
156.388806
 51
157.411804
  0
ARC
  5
BC
100
AcDbEntity
  8
I-CABO
  6
ByLayer
 62
  256
370
   -1
100
AcDbCircle
 10
82.45833500000003
 20
246.004985
 40
1.131716
100
AcDbArc
 50
133.458604
 51
156.388806
  0
ARC
  5
BD
100
AcDbEntity
  8
I-CABO
  6
ByLayer
 62
  256
370
   -1
100
AcDbCircle
 10
81.90437999999995
 20
246.589778
 40
0.326228
100
AcDbArc
 50
90.00000300000001
 51
133.458604
  0
ARC
  5
BE
100
AcDbEntity
  8
I-CABO
  6
ByLayer
 62
  256
370
   -1
100
AcDbCircle
 10
81.90437999999995
 20
246.589778
 40
0.326228
100
AcDbArc
 50
46.541401
 51
90.00000300000001
  0
ARC
  5
BF
100
AcDbEntity
  8
I-CABO
  6
ByLayer
 62
  256
370
   -1
100
AcDbCircle
 10
81.35024599999997
 20
246.004985
 40
1.131716
100
AcDbArc
 50
23.61119
 51
46.541401
  0
ARC
  5
C0
100
AcDbEntity
  8
I-CABO
  6
ByLayer
 62
  256
370
   -1
100
AcDbCircle
 10
80.45247599999993
 20
245.612483
 40
2.111624
100
AcDbArc
 50
22.588201
 51
23.61119
  0
ARC
  5
C1
100
AcDbEntity
  8
I-CABO
  6
ByLayer
 62
  256
370
   -1
100
AcDbCircle
 10
104.825394
 20
246.16464
 40
3.565539
100
AcDbArc
 50
0
 51
6.660508
  0
ARC
  5
C2
100
AcDbEntity
  8
I-CABO
  6
ByLayer
 62
  256
370
   -1
100
AcDbCircle
 10
110.5905
 20
246.16464
 40
3.565539
100
AcDbArc
 50
173.339505
 51
180.000005
  0
ARC
  5
C3
100
AcDbEntity
  8
I-CABO
  6
ByLayer
 62
  256
370
   -1
100
AcDbCircle
 10
107.707901
 20
244.928434
 40
0.326228
100
AcDbArc
 50
270.000001
 51
313.458609
  0
ARC
  5
C4
100
AcDbEntity
  8
I-CABO
  6
ByLayer
 62
  256
370
   -1
100
AcDbCircle
 10
107.707901
 20
244.928434
 40
0.326228
100
AcDbArc
 50
226.541406
 51
270.000001
  0
ARC
  5
C5
100
AcDbEntity
  8
I-CABO
  6
ByLayer
 62
  256
370
   -1
100
AcDbCircle
 10
108.261993
 20
245.513135
 40
1.131716
100
AcDbArc
 50
210.869701
 51
226.541406
  0
ARC
  5
C6
100
AcDbEntity
  8
I-CABO
  6
ByLayer
 62
  256
370
   -1
100
AcDbCircle
 10
110.5905
 20
246.16464
 40
3.565539
100
AcDbArc
 50
180.000005
 51
189.290401
  0
ARC
  5
C7
100
AcDbEntity
  8
I-CABO
  6
ByLayer
 62
  256
370
   -1
100
AcDbCircle
 10
104.825394
 20
246.16464
 40
3.565539
100
AcDbArc
 50
350.709587
 51
0
  0
ARC
  5
C8
100
AcDbEntity
  8
I-CABO
  6
ByLayer
 62
  256
370
   -1
100
AcDbCircle
 10
107.1539
 20
245.513135
 40
1.131716
100
AcDbArc
 50
313.458609
 51
329.130287
  0
ARC
  5
C9
100
AcDbEntity
  8
I-CABO
  6
ByLayer
 62
  256
370
   -1
100
AcDbCircle
 10
107.707901
 20
247.400831
 40
0.326228
100
AcDbArc
 50
46.541438
 51
90.00000300000001
  0
ARC
  5
CA
100
AcDbEntity
  8
I-CABO
  6
ByLayer
 62
  256
370
   -1
100
AcDbCircle
 10
109.159889
 20
246.423627
 40
2.111624
100
AcDbArc
 50
156.388806
 51
157.411804
  0
ARC
  5
CB
100
AcDbEntity
  8
I-CABO
  6
ByLayer
 62
  256
370
   -1
100
AcDbCircle
 10
108.261993
 20
246.816129
 40
1.131716
100
AcDbArc
 50
133.458604
 51
156.388806
  0
ARC
  5
CC
100
AcDbEntity
  8
I-CABO
  6
ByLayer
 62
  256
370
   -1
100
AcDbCircle
 10
107.707901
 20
247.400831
 40
0.326228
100
AcDbArc
 50
90.00000300000001
 51
133.458604
  0
ARC
  5
CD
100
AcDbEntity
  8
I-CABO
  6
ByLayer
 62
  256
370
   -1
100
AcDbCircle
 10
107.1539
 20
246.816129
 40
1.131716
100
AcDbArc
 50
23.61123
 51
46.541438
  0
ARC
  5
CE
100
AcDbEntity
  8
I-CABO
  6
ByLayer
 62
  256
370
   -1
100
AcDbCircle
 10
106.255989
 20
246.423627
 40
2.111624
100
AcDbArc
 50
22.58823
 51
23.61123
  0
ARC
  5
CF
100
AcDbEntity
  8
I-CABO
  6
ByLayer
 62
  256
370
   -1
100
AcDbCircle
 10
130.546072
 20
245.895429
 40
3.565539
100
AcDbArc
 50
0
 51
6.660508
  0
ARC
  5
D0
100
AcDbEntity
  8
I-CABO
  6
ByLayer
 62
  256
370
   -1
100
AcDbCircle
 10
136.311179
 20
245.895429
 40
3.565539
100
AcDbArc
 50
173.339505
 51
180.000005
  0
ARC
  5
D1
100
AcDbEntity
  8
I-CABO
  6
ByLayer
 62
  256
370
   -1
100
AcDbCircle
 10
130.546072
 20
245.895429
 40
3.565539
100
AcDbArc
 50
350.709587
 51
0
  0
ARC
  5
D2
100
AcDbEntity
  8
I-CABO
  6
ByLayer
 62
  256
370
   -1
100
AcDbCircle
 10
132.874579
 20
245.24394
 40
1.131716
100
AcDbArc
 50
313.458609
 51
329.130287
  0
ARC
  5
D3
100
AcDbEntity
  8
I-CABO
  6
ByLayer
 62
  256
370
   -1
100
AcDbCircle
 10
133.428687
 20
244.659238
 40
0.326228
100
AcDbArc
 50
270.000001
 51
313.458609
  0
ARC
  5
D4
100
AcDbEntity
  8
I-CABO
  6
ByLayer
 62
  256
370
   -1
100
AcDbCircle
 10
133.428687
 20
244.659238
 40
0.326228
100
AcDbArc
 50
226.541406
 51
270.000001
  0
ARC
  5
D5
100
AcDbEntity
  8
I-CABO
  6
ByLayer
 62
  256
370
   -1
100
AcDbCircle
 10
133.982672
 20
245.24394
 40
1.131716
100
AcDbArc
 50
210.869701
 51
226.541406
  0
ARC
  5
D6
100
AcDbEntity
  8
I-CABO
  6
ByLayer
 62
  256
370
   -1
100
AcDbCircle
 10
136.311179
 20
245.895429
 40
3.565539
100
AcDbArc
 50
180.000005
 51
189.290401
  0
ARC
  5
D7
100
AcDbEntity
  8
I-CABO
  6
ByLayer
 62
  256
370
   -1
100
AcDbCircle
 10
134.880576
 20
246.154432
 40
2.111624
100
AcDbArc
 50
156.388806
 51
157.411804
  0
ARC
  5
D8
100
AcDbEntity
  8
I-CABO
  6
ByLayer
 62
  256
370
   -1
100
AcDbCircle
 10
133.982672
 20
246.546934
 40
1.131716
100
AcDbArc
 50
133.458604
 51
156.388806
  0
ARC
  5
D9
100
AcDbEntity
  8
I-CABO
  6
ByLayer
 62
  256
370
   -1
100
AcDbCircle
 10
133.428687
 20
247.131635
 40
0.326228
100
AcDbArc
 50
90.00000300000001
 51
133.458604
  0
ARC
  5
DA
100
AcDbEntity
  8
I-CABO
  6
ByLayer
 62
  256
370
   -1
100
AcDbCircle
 10
133.428687
 20
247.131635
 40
0.326228
100
AcDbArc
 50
46.541438
 51
90.00000300000001
  0
ARC
  5
DB
100
AcDbEntity
  8
I-CABO
  6
ByLayer
 62
  256
370
   -1
100
AcDbCircle
 10
132.874579
 20
246.546934
 40
1.131716
100
AcDbArc
 50
23.61123
 51
46.541438
  0
ARC
  5
DC
100
AcDbEntity
  8
I-CABO
  6
ByLayer
 62
  256
370
   -1
100
AcDbCircle
 10
131.976782
 20
246.154432
 40
2.111624
100
AcDbArc
 50
22.58823
 51
23.61123
  0
TEXT
  5
DD
100
AcDbEntity
  8
I-TEXTO2
  6
ByLayer
 62
  256
370
   -1
100
AcDbText
 10
131.7447999999999
 20
280.9147
 30
0
 40
3
  1
FIELD
 50
0
 41
1
 51
0
  7
style-standard
 71
    0
210
0
220
0
230
1
100
AcDbText
  0
ARC
  5
DE
100
AcDbEntity
  8
I-CABO
  6
ByLayer
 62
  256
370
   -1
100
AcDbCircle
 10
177.7183299999999
 20
247.170194
 40
0.326228
100
AcDbArc
 50
90.00000300000001
 51
133.458604
  0
ARC
  5
DF
100
AcDbEntity
  8
I-CABO
  6
ByLayer
 62
  256
370
   -1
100
AcDbCircle
 10
177.7183299999999
 20
244.697797
 40
0.326228
100
AcDbArc
 50
226.541406
 51
270.000001
  0
ARC
  5
E0
100
AcDbEntity
  8
I-CABO
  6
ByLayer
 62
  256
370
   -1
100
AcDbCircle
 10
159.728126
 20
245.895429
 40
3.565539
100
AcDbArc
 50
0
 51
6.660508
  0
ARC
  5
E1
100
AcDbEntity
  8
I-CABO
  6
ByLayer
 62
  256
370
   -1
100
AcDbCircle
 10
165.493232
 20
245.895429
 40
3.565539
100
AcDbArc
 50
173.339505
 51
180.000005
  0
ARC
  5
E2
100
AcDbEntity
  8
I-CABO
  6
ByLayer
 62
  256
370
   -1
100
AcDbCircle
 10
159.728126
 20
245.895429
 40
3.565539
100
AcDbArc
 50
350.709587
 51
0
  0
ARC
  5
E3
100
AcDbEntity
  8
I-CABO
  6
ByLayer
 62
  256
370
   -1
100
AcDbCircle
 10
162.056632
 20
245.24394
 40
1.131716
100
AcDbArc
 50
313.458609
 51
329.130287
  0
ARC
  5
E4
100
AcDbEntity
  8
I-CABO
  6
ByLayer
 62
  256
370
   -1
100
AcDbCircle
 10
162.610724
 20
244.659238
 40
0.326228
100
AcDbArc
 50
270.000001
 51
313.458609
  0
ARC
  5
E5
100
AcDbEntity
  8
I-CABO
  6
ByLayer
 62
  256
370
   -1
100
AcDbCircle
 10
162.610724
 20
244.659238
 40
0.326228
100
AcDbArc
 50
226.541406
 51
270.000001
  0
ARC
  5
E6
100
AcDbEntity
  8
I-CABO
  6
ByLayer
 62
  256
370
   -1
100
AcDbCircle
 10
163.164725
 20
245.24394
 40
1.131716
100
AcDbArc
 50
210.869701
 51
226.541406
  0
ARC
  5
E7
100
AcDbEntity
  8
I-CABO
  6
ByLayer
 62
  256
370
   -1
100
AcDbCircle
 10
165.493232
 20
245.895429
 40
3.565539
100
AcDbArc
 50
180.000005
 51
189.290401
  0
ARC
  5
E8
100
AcDbEntity
  8
I-CABO
  6
ByLayer
 62
  256
370
   -1
100
AcDbCircle
 10
164.062629
 20
246.154432
 40
2.111624
100
AcDbArc
 50
156.388806
 51
157.411804
  0
ARC
  5
E9
100
AcDbEntity
  8
I-CABO
  6
ByLayer
 62
  256
370
   -1
100
AcDbCircle
 10
163.164725
 20
246.546934
 40
1.131716
100
AcDbArc
 50
133.458604
 51
156.388806
  0
ARC
  5
EA
100
AcDbEntity
  8
I-CABO
  6
ByLayer
 62
  256
370
   -1
100
AcDbCircle
 10
162.610724
 20
247.131635
 40
0.326228
100
AcDbArc
 50
90.00000300000001
 51
133.458604
  0
ARC
  5
EB
100
AcDbEntity
  8
I-CABO
  6
ByLayer
 62
  256
370
   -1
100
AcDbCircle
 10
162.610724
 20
247.131635
 40
0.326228
100
AcDbArc
 50
46.541438
 51
90.00000300000001
  0
ARC
  5
EC
100
AcDbEntity
  8
I-CABO
  6
ByLayer
 62
  256
370
   -1
100
AcDbCircle
 10
162.056632
 20
246.546934
 40
1.131716
100
AcDbArc
 50
23.61123
 51
46.541438
  0
ARC
  5
ED
100
AcDbEntity
  8
I-CABO
  6
ByLayer
 62
  256
370
   -1
100
AcDbCircle
 10
161.15882
 20
246.154432
 40
2.111624
100
AcDbArc
 50
22.58823
 51
23.61123
  0
ARC
  5
EE
100
AcDbEntity
  8
I-CABO
  6
ByLayer
 62
  256
370
   -1
100
AcDbCircle
 10
180.600929
 20
245.934003
 40
3.565539
100
AcDbArc
 50
173.339505
 51
180.000005
  0
ARC
  5
EF
100
AcDbEntity
  8
I-CABO
  6
ByLayer
 62
  256
370
   -1
100
AcDbCircle
 10
180.600929
 20
245.934003
 40
3.565539
100
AcDbArc
 50
180.000005
 51
189.290401
  0
ARC
  5
F0
100
AcDbEntity
  8
I-CABO
  6
ByLayer
 62
  256
370
   -1
100
AcDbCircle
 10
178.272331
 20
245.282499
 40
1.131716
100
AcDbArc
 50
210.869701
 51
226.541406
  0
ARC
  5
F1
100
AcDbEntity
  8
I-CABO
  6
ByLayer
 62
  256
370
   -1
100
AcDbCircle
 10
178.272331
 20
246.585493
 40
1.131716
100
AcDbArc
 50
133.458604
 51
156.388806
  0
ARC
  5
F2
100
AcDbEntity
  8
I-CABO
  6
ByLayer
 62
  256
370
   -1
100
AcDbCircle
 10
179.170235
 20
246.193006
 40
2.111624
100
AcDbArc
 50
156.388806
 51
157.411804
  0
ARC
  5
F3
100
AcDbEntity
  8
I-CABO
  6
ByLayer
 62
  256
370
   -1
100
AcDbCircle
 10
174.835731
 20
245.934003
 40
3.565539
100
AcDbArc
 50
0
 51
6.660508
  0
ARC
  5
F4
100
AcDbEntity
  8
I-CABO
  6
ByLayer
 62
  256
370
   -1
100
AcDbCircle
 10
177.7183299999999
 20
244.697797
 40
0.326228
100
AcDbArc
 50
270.000001
 51
313.458609
  0
ARC
  5
F5
100
AcDbEntity
  8
I-CABO
  6
ByLayer
 62
  256
370
   -1
100
AcDbCircle
 10
177.164329
 20
245.282499
 40
1.131716
100
AcDbArc
 50
313.458609
 51
329.130287
  0
ARC
  5
F6
100
AcDbEntity
  8
I-CABO
  6
ByLayer
 62
  256
370
   -1
100
AcDbCircle
 10
174.835731
 20
245.934003
 40
3.565539
100
AcDbArc
 50
350.709587
 51
0
  0
ARC
  5
F7
100
AcDbEntity
  8
I-CABO
  6
ByLayer
 62
  256
370
   -1
100
AcDbCircle
 10
176.266441
 20
246.193006
 40
2.111624
100
AcDbArc
 50
22.58823
 51
23.61123
  0
ARC
  5
F8
100
AcDbEntity
  8
I-CABO
  6
ByLayer
 62
  256
370
   -1
100
AcDbCircle
 10
177.164329
 20
246.585493
 40
1.131716
100
AcDbArc
 50
23.61123
 51
46.541438
  0
ARC
  5
F9
100
AcDbEntity
  8
I-CABO
  6
ByLayer
 62
  256
370
   -1
100
AcDbCircle
 10
177.7183299999999
 20
247.170194
 40
0.326228
100
AcDbArc
 50
46.541438
 51
90.00000300000001
  0
ARC
  5
FA
100
AcDbEntity
  8
I-CABO
  6
ByLayer
 62
  256
370
   -1
100
AcDbCircle
 10
193.142975
 20
245.640531
 40
3.565539
100
AcDbArc
 50
350.709587
 51
0
  0
ARC
  5
FB
100
AcDbEntity
  8
I-CABO
  6
ByLayer
 62
  256
370
   -1
100
AcDbCircle
 10
195.4714819999999
 20
244.989042
 40
1.131716
100
AcDbArc
 50
313.458609
 51
329.130287
  0
ARC
  5
FC
100
AcDbEntity
  8
I-CABO
  6
ByLayer
 62
  256
370
   -1
100
AcDbCircle
 10
196.025574
 20
244.40434
 40
0.326228
100
AcDbArc
 50
270.000001
 51
313.458609
  0
ARC
  5
FD
100
AcDbEntity
  8
I-CABO
  6
ByLayer
 62
  256
370
   -1
100
AcDbCircle
 10
196.025574
 20
244.40434
 40
0.326228
100
AcDbArc
 50
226.541406
 51
270.000001
  0
ARC
  5
FE
100
AcDbEntity
  8
I-CABO
  6
ByLayer
 62
  256
370
   -1
100
AcDbCircle
 10
196.579575
 20
244.989042
 40
1.131716
100
AcDbArc
 50
210.869701
 51
226.541406
  0
ARC
  5
FF
100
AcDbEntity
  8
I-CABO
  6
ByLayer
 62
  256
370
   -1
100
AcDbCircle
 10
198.908081
 20
245.640531
 40
3.565539
100
AcDbArc
 50
173.339505
 51
180.000005
  0
ARC
  5
100
100
AcDbEntity
  8
I-CABO
  6
ByLayer
 62
  256
370
   -1
100
AcDbCircle
 10
198.908081
 20
245.640531
 40
3.565539
100
AcDbArc
 50
180.000005
 51
189.290401
  0
ARC
  5
101
100
AcDbEntity
  8
I-CABO
  6
ByLayer
 62
  256
370
   -1
100
AcDbCircle
 10
197.477478
 20
245.899534
 40
2.111624
100
AcDbArc
 50
156.388806
 51
157.411804
  0
ARC
  5
102
100
AcDbEntity
  8
I-CABO
  6
ByLayer
 62
  256
370
   -1
100
AcDbCircle
 10
196.579575
 20
246.292036
 40
1.131716
100
AcDbArc
 50
133.458604
 51
156.388806
  0
ARC
  5
103
100
AcDbEntity
  8
I-CABO
  6
ByLayer
 62
  256
370
   -1
100
AcDbCircle
 10
196.025574
 20
246.876737
 40
0.326228
100
AcDbArc
 50
90.00000300000001
 51
133.458604
  0
ARC
  5
104
100
AcDbEntity
  8
I-CABO
  6
ByLayer
 62
  256
370
   -1
100
AcDbCircle
 10
196.025574
 20
246.876737
 40
0.326228
100
AcDbArc
 50
46.541438
 51
90.00000300000001
  0
ARC
  5
105
100
AcDbEntity
  8
I-CABO
  6
ByLayer
 62
  256
370
   -1
100
AcDbCircle
 10
195.4714819999999
 20
246.292036
 40
1.131716
100
AcDbArc
 50
23.61123
 51
46.541438
  0
ARC
  5
106
100
AcDbEntity
  8
I-CABO
  6
ByLayer
 62
  256
370
   -1
100
AcDbCircle
 10
194.573685
 20
245.899534
 40
2.111624
100
AcDbArc
 50
22.58823
 51
23.61123
  0
TEXT
  5
107
100
AcDbEntity
  8
I-TEXTO2
  6
ByLayer
 62
  256
370
   -1
100
AcDbText
 10
313.7150999999999
 20
279.7485
 30
0
 40
3
  1
CONTROL ROOM
 50
0
 41
1
 51
0
  7
style-standard
 71
    0
210
0
220
0
230
1
100
AcDbText
  0
TEXT
  5
108
100
AcDbEntity
  8
I-TEXTO2
  6
ByLayer
 62
  256
370
   -1
100
AcDbText
 10
280.4175
 20
268.062
 30
0
 40
3
  1
PANEL ROOM
 50
0
 41
1
 51
0
  7
style-standard
 71
    0
210
0
220
0
230
1
100
AcDbText
  0
TEXT
  5
109
100
AcDbEntity
  8
I-TEXTO2
  6
ByLayer
 62
  256
370
   -1
100
AcDbText
 10
344.0191
 20
267.8557
 30
0
 40
3
  1
SUPERVISORY SYSTEM
 50
0
 41
1
 51
0
  7
style-standard
 71
    0
210
0
220
0
230
1
100
AcDbText
  0
TEXT
  5
10A
100
AcDbEntity
  8
I-TEXTO2
  6
ByLayer
 62
  256
370
   -1
100
AcDbText
 10
311.4816890000001
 20
9.474599999999997
 30
0
 40
2.5
  1
DE-3010.19-1200-800-IES-110
 50
0
 41
1
 51
0
  7
style-standard
 71
    0
210
0
220
0
230
1
100
AcDbText
  0
TEXT
  5
10B
100
AcDbEntity
  8
I-TEXTO2
  6
ByLayer
 62
  256
370
   -1
100
AcDbText
 10
310.820189
 20
31.121
 30
0
 40
2.5
  1
PETROLEO BRASILEIRO SA -  PETROBRAS
 50
0
 41
1
 51
0
  7
style-standard
 71
    0
210
0
220
0
230
1
100
AcDbText
  0
TEXT
  5
10C
100
AcDbEntity
  8
I-TEXTO2
  6
ByLayer
 62
  256
370
   -1
100
AcDbText
 10
324.897289
 20
20.65610000000001
 30
0
 40
4.5
  1
DIAGRAMA DE MALHA
 50
0
 41
1
 51
0
  7
style-standard
 71
    0
210
0
220
0
230
1
100
AcDbText
  0
TEXT
  5
10D
100
AcDbEntity
  8
I-TEXTO2
  6
ByLayer
 62
  256
370
   -1
100
AcDbText
 10
237.251099
 20
9.315616999999996
 30
0
 40
2.5
  1
DI-P-19-I.38-001
 50
0
 41
1
 51
0
  7
style-standard
 71
    0
210
0
220
0
230
1
100
AcDbText
  0
LINE
  5
10E
100
AcDbEntity
  8
I-CABO
  6
ByLayer
 62
    1
370
   -1
100
AcDbLine
 10
136.671286
 20
245.781141
 11
77.85604999999998
 21
245.781141
  0
LINE
  5
10F
100
AcDbEntity
  8
I-CABO
  6
ByLayer
 62
    1
370
   -1
100
AcDbLine
 10
77.87796700000001
 20
243.493587
 11
72.87796700000001
 21
243.493587
  0
LINE
  5
110
100
AcDbEntity
  8
I-CABO
  6
ByLayer
 62
    1
370
   -1
100
AcDbLine
 10
77.87796700000001
 20
248.493587
 11
72.87796700000001
 21
248.493587
  0
LINE
  5
111
100
AcDbEntity
  8
I-CABO
  6
ByLayer
 62
    1
370
   -1
100
AcDbLine
 10
136.776877
 20
243.55734
 11
136.776877
 21
248.55734
  0
LINE
  5
112
100
AcDbEntity
  8
I-CABO
  6
ByLayer
 62
    1
370
   -1
100
AcDbLine
 10
136.776877
 20
243.55734
 11
141.776877
 21
243.55734
  0
LINE
  5
113
100
AcDbEntity
  8
I-CABO
  6
ByLayer
 62
    1
370
   -1
100
AcDbLine
 10
136.776877
 20
248.55734
 11
141.776877
 21
248.55734
  0
LINE
  5
114
100
AcDbEntity
  8
I-CABO
  6
ByLayer
 62
    1
370
   -1
100
AcDbLine
 10
198.472397
 20
246.079282
 11
160.43566
 21
246.079282
  0
LINE
  5
115
100
AcDbEntity
  8
I-CABO
  6
ByLayer
 62
    1
370
   -1
100
AcDbLine
 10
159.614524
 20
243.55734
 11
159.614524
 21
248.55734
  0
LINE
  5
116
100
AcDbEntity
  8
I-CABO
  6
ByLayer
 62
    1
370
   -1
100
AcDbLine
 10
159.614524
 20
243.55734
 11
154.614524
 21
243.55734
  0
LINE
  5
117
100
AcDbEntity
  8
I-CABO
  6
ByLayer
 62
    1
370
   -1
100
AcDbLine
 10
159.614524
 20
248.55734
 11
154.614524
 21
248.55734
  0
LINE
  5
118
100
AcDbEntity
  8
I-CABO
  6
ByLayer
 62
    1
370
   -1
100
AcDbLine
 10
198.459381
 20
248.600828
 11
203.459381
 21
248.600828
  0
LINE
  5
119
100
AcDbEntity
  8
I-CABO
  6
ByLayer
 62
    1
370
   -1
100
AcDbLine
 10
198.459381
 20
243.600828
 11
203.459381
 21
243.600828
  0
LINE
  5
11A
100
AcDbEntity
  8
I-CABO
  6
ByLayer
 62
    1
370
   -1
100
AcDbLine
 10
198.459381
 20
243.600828
 11
198.459381
 21
248.600828
  0
LINE
  5
11B
100
AcDbEntity
  8
I-CABO
  6
ByLayer
 62
    2
370
   -1
100
AcDbLine
 10
349.2116149999999
 20
249.885236
 11
338.2116149999999
 21
249.885236
  0
CIRCLE
  5
11C
100
AcDbEntity
  8
I-CABO
  6
ByLayer
 62
    2
370
   -1
100
AcDbCircle
 10
259.267889
 20
249.885236
 40
0.75
  0
LINE
  5
11D
100
AcDbEntity
  8
I-CABO
  6
ByLayer
 62
    2
370
   -1
100
AcDbLine
 10
248.771764
 20
249.885236
 11
258.279661
 21
249.885236
  0
LINE
  5
11E
100
AcDbEntity
  8
I-CABO
  6
ByLayer
 62
    2
370
   -1
100
AcDbLine
 10
260.017889
 20
249.885236
 11
271.017889
 21
249.885236
  0
LINE
  5
11F
100
AcDbEntity
  8
I-CABO
  6
ByLayer
 62
    2
370
   -1
100
AcDbLine
 10
314.53711
 20
249.885236
 11
304.849699
 21
249.885236
  0
CIRCLE
  5
120
100
AcDbEntity
  8
I-CABO
  6
ByLayer
 62
    2
370
   -1
100
AcDbCircle
 10
324.9616149999999
 20
249.885236
 40
0.75
  0
LINE
  5
121
100
AcDbEntity
  8
I-CABO
  6
ByLayer
 62
    2
370
   -1
100
AcDbLine
 10
324.2116149999999
 20
249.885236
 11
315.849477
 21
249.885236
  0
CIRCLE
  5
122
100
AcDbEntity
  8
I-CABO
  6
ByLayer
 62
    2
370
   -1
100
AcDbCircle
 10
315.28711
 20
249.885236
 40
0.75
  0
LINE
  5
123
100
AcDbEntity
  8
I-CABO
  6
ByLayer
 62
    2
370
   -1
100
AcDbLine
 10
325.7116149999999
 20
249.885236
 11
336.7116149999999
 21
249.885236
  0
CIRCLE
  5
124
100
AcDbEntity
  8
I-CABO
  6
ByLayer
 62
    2
370
   -1
100
AcDbCircle
 10
337.4616149999999
 20
249.885236
 40
0.75
  0
CIRCLE
  5
125
100
AcDbEntity
  8
I-CABO
  6
ByLayer
 62
    2
370
   -1
100
AcDbCircle
 10
374.961401
 20
249.885236
 40
0.75
  0
LINE
  5
126
100
AcDbEntity
  8
I-CABO
  6
ByLayer
 62
    2
370
   -1
100
AcDbLine
 10
350.7116149999999
 20
249.885236
 11
361.711401
 21
249.885236
  0
CIRCLE
  5
127
100
AcDbEntity
  8
I-CABO
  6
ByLayer
 62
    2
370
   -1
100
AcDbCircle
 10
349.9616149999999
 20
249.885236
 40
0.75
  0
LINE
  5
128
100
AcDbEntity
  8
I-CABO
  6
ByLayer
 62
    2
370
   -1
100
AcDbLine
 10
374.211401
 20
249.885236
 11
363.211401
 21
249.885236
  0
CIRCLE
  5
129
100
AcDbEntity
  8
I-CABO
  6
ByLayer
 62
    2
370
   -1
100
AcDbCircle
 10
362.461401
 20
249.885236
 40
0.75
  0
LINE
  5
12A
100
AcDbEntity
  8
I-CABO
  6
ByLayer
 62
    2
370
   -1
100
AcDbLine
 10
375.711401
 20
249.885236
 11
386.7116149999999
 21
249.885236
  0
TEXT
  5
12B
100
AcDbEntity
  8
senhas
  6
ByLayer
 62
  256
370
   -1
100
AcDbText
 10
68.05845099999999
 20
243.3935
 30
0
 40
2.5
  1
A01IPB2
 50
0
 41
1
 51
0
  7
style-standard
 71
    0
 72
    1
 11
68.05845099999999
 21
243.3935
 31
0
210
0
220
0
230
1
100
AcDbText
 73
    2
  0
TEXT
  5
12C
100
AcDbEntity
  8
senhas
  6
ByLayer
 62
  256
370
   -1
100
AcDbText
 10
67.77483299999994
 20
248.2048
 30
0
 40
2.5
  1
A01IPB1
 50
0
 41
1
 51
0
  7
style-standard
 71
    0
 72
    1
 11
67.77483299999994
 21
248.2048
 31
0
210
0
220
0
230
1
100
AcDbText
 73
    2
  0
TEXT
  5
12D
100
AcDbEntity
  8
senhas
  6
ByLayer
 62
  256
370
   -1
100
AcDbText
 10
62.76575100000002
 20
252.9774
 30
0
 40
2.5
  1
A01IPDE
 50
0
 41
1
 51
0
  7
style-standard
 71
    0
 72
    1
 11
62.76575100000002
 21
252.9774
 31
0
210
0
220
0
230
1
100
AcDbText
  0
TEXT
  5
12E
100
AcDbEntity
  8
senhas
  6
ByLayer
 62
  256
370
   -1
100
AcDbText
 10
104.191157
 20
236.1889
 30
0
 40
2.5
  1
A01IPCB
 50
0
 41
1
 51
0
  7
style-standard
 71
    0
 72
    2
 11
104.191157
 21
236.1889
 31
0
210
0
220
0
230
1
100
AcDbText
  0
TEXT
  5
12F
100
AcDbEntity
  8
senhas
  6
ByLayer
 62
  256
370
   -1
100
AcDbText
 10
147.174576
 20
237.2438
 30
0
 40
2.5
  1
A01PRB3
 50
0
 41
1
 51
0
  7
style-standard
 71
    0
 72
    1
 11
147.174576
 21
237.2438
 31
0
210
0
220
0
230
1
100
AcDbText
  0
TEXT
  5
130
100
AcDbEntity
  8
senhas
  6
ByLayer
 62
  256
370
   -1
100
AcDbText
 10
146.825959
 20
253.095
 30
0
 40
2.5
  1
A01PRRA1
 50
0
 41
1
 51
0
  7
style-standard
 71
    0
 72
    1
 11
146.825959
 21
253.095
 31
0
210
0
220
0
230
1
100
AcDbText
  0
TEXT
  5
131
100
AcDbEntity
  8
senhas
  6
ByLayer
 62
  256
370
   -1
100
AcDbText
 10
147.174576
 20
242.2438
 30
0
 40
2.5
  1
A01PRB2
 50
0
 41
1
 51
0
  7
style-standard
 71
    0
 72
    1
 11
147.174576
 21
242.2438
 31
0
210
0
220
0
230
1
100
AcDbText
  0
TEXT
  5
132
100
AcDbEntity
  8
senhas
  6
ByLayer
 62
  256
370
   -1
100
AcDbText
 10
146.8362549999999
 20
247.2438
 30
0
 40
2.5
  1
A01PRB1
 50
0
 41
1
 51
0
  7
style-standard
 71
    0
 72
    1
 11
146.8362549999999
 21
247.2438
 31
0
210
0
220
0
230
1
100
AcDbText
  0
TEXT
  5
133
100
AcDbEntity
  8
senhas
  6
ByLayer
 62
  256
370
   -1
100
AcDbText
 10
147.174576
 20
260.0466
 30
0
 40
2.5
  1
A01PRDE
 50
0
 41
1
 51
0
  7
style-standard
 71
    0
 72
    1
 11
147.174576
 21
260.0466
 31
0
210
0
220
0
230
1
100
AcDbText
  0
TEXT
  5
134
100
AcDbEntity
  8
senhas
  6
ByLayer
 62
  256
370
   -1
100
AcDbText
 10
174.5900449999999
 20
221.7737
 30
0
 40
2.5
  1
A01PRPR
 50
0
 41
1
 51
0
  7
style-standard
 71
    0
 72
    2
 11
174.5900449999999
 21
221.7737
 31
0
210
0
220
0
230
1
100
AcDbText
  0
TEXT
  5
135
100
AcDbEntity
  8
senhas
  6
ByLayer
 62
  256
370
   -1
100
AcDbText
 10
174.682964
 20
225.5859
 30
0
 40
2.5
  1
A01PRCB
 50
0
 41
1
 51
0
  7
style-standard
 71
    0
 72
    2
 11
174.682964
 21
225.5859
 31
0
210
0
220
0
230
1
100
AcDbText
  0
TEXT
  5
136
100
AcDbEntity
  8
senhas
  6
ByLayer
 62
  256
370
   -1
100
AcDbText
 10
208.107376
 20
239.5278
 30
0
 40
2.5
  1
A01PRB6
 50
0
 41
1
 51
0
  7
style-standard
 71
    0
 72
    1
 11
208.107376
 21
239.5278
 31
0
210
0
220
0
230
1
100
AcDbText
 73
    2
  0
TEXT
  5
137
100
AcDbEntity
  8
senhas
  6
ByLayer
 62
  256
370
   -1
100
AcDbText
 10
208.107376
 20
244.8087
 30
0
 40
2.5
  1
A01PRB5
 50
0
 41
1
 51
0
  7
style-standard
 71
    0
 72
    1
 11
208.107376
 21
244.8087
 31
0
210
0
220
0
230
1
100
AcDbText
 73
    2
  0
TEXT
  5
138
100
AcDbEntity
  8
senhas
  6
ByLayer
 62
  256
370
   -1
100
AcDbText
 10
208.100432
 20
250.3051
 30
0
 40
2.5
  1
A01PRB4
 50
0
 41
1
 51
0
  7
style-standard
 71
    0
 72
    1
 11
208.100432
 21
250.3051
 31
0
210
0
220
0
230
1
100
AcDbText
 73
    2
  0
TEXT
  5
139
100
AcDbEntity
  8
senhas
  6
ByLayer
 62
  256
370
   -1
100
AcDbText
 10
232.245825
 20
239.5278
 30
0
 40
2.5
  1
A01PRRB1
 50
0
 41
1
 51
0
  7
style-standard
 71
    0
 72
    1
 11
232.245825
 21
239.5278
 31
0
210
0
220
0
230
1
100
AcDbText
 73
    2
  0
TEXT
  5
13A
100
AcDbEntity
  8
senhas
  6
ByLayer
 62
  256
370
   -1
100
AcDbText
 10
232.627619
 20
250.3051
 30
0
 40
2.5
  1
A01PRAO
 50
0
 41
1
 51
0
  7
style-standard
 71
    0
 72
    1
 11
232.627619
 21
250.3051
 31
0
210
0
220
0
230
1
100
AcDbText
 73
    2
  0
TEXT
  5
13B
100
AcDbEntity
  8
senhas
  6
ByLayer
 62
  256
370
   -1
100
AcDbText
 10
272.9055
 20
248.8917
 30
0
 40
2.5
  1
A02RPDE
 50
0
 41
1
 51
0
  7
style-standard
 71
    0
210
0
220
0
230
1
100
AcDbText
  0
TEXT
  5
13C
100
AcDbEntity
  8
senhas
  6
ByLayer
 62
  256
370
   -1
100
AcDbText
 10
391.395261
 20
257.3442000000001
 30
0
 40
2.5
  1
A02RPAO
 50
0
 41
1
 51
0
  7
style-standard
 71
    0
 72
    1
 11
391.395261
 21
257.3442000000001
 31
0
210
0
220
0
230
1
100
AcDbText
  0
TEXT
  5
13D
100
AcDbEntity
  8
senhas
  6
ByLayer
 62
  256
370
   -1
100
AcDbText
 10
74.01469999999995
 20
244.1084
 30
0
 40
1.5
  1
BR
 50
0
 41
1
 51
0
  7
style-standard
 71
    0
210
0
220
0
230
1
100
AcDbText
  0
TEXT
  5
13E
100
AcDbEntity
  8
senhas
  6
ByLayer
 62
  256
370
   -1
100
AcDbText
 10
73.77639999999997
 20
249.1994
 30
0
 40
1.5
  1
PR
 50
0
 41
1
 51
0
  7
style-standard
 71
    0
210
0
220
0
230
1
100
AcDbText
  0
TEXT
  5
13F
100
AcDbEntity
  8
senhas
  6
ByLayer
 62
  256
370
   -1
100
AcDbText
 10
137.7951
 20
244.3047
 30
0
 40
1.5
  1
BR
 50
0
 41
1
 51
0
  7
style-standard
 71
    0
210
0
220
0
230
1
100
AcDbText
  0
TEXT
  5
140
100
AcDbEntity
  8
senhas
  6
ByLayer
 62
  256
370
   -1
100
AcDbText
 10
137.5568
 20
249.3957
 30
0
 40
1.5
  1
PR
 50
0
 41
1
 51
0
  7
style-standard
 71
    0
210
0
220
0
230
1
100
AcDbText
  0
TEXT
  5
141
100
AcDbEntity
  8
senhas
  6
ByLayer
 62
  256
370
   -1
100
AcDbText
 10
155.7079
 20
244.0331
 30
0
 40
1.5
  1
BR
 50
0
 41
1
 51
0
  7
style-standard
 71
    0
210
0
220
0
230
1
100
AcDbText
  0
TEXT
  5
142
100
AcDbEntity
  8
senhas
  6
ByLayer
 62
  256
370
   -1
100
AcDbText
 10
155.4696
 20
249.1241
 30
0
 40
1.5
  1
PR
 50
0
 41
1
 51
0
  7
style-standard
 71
    0
210
0
220
0
230
1
100
AcDbText
  0
TEXT
  5
143
100
AcDbEntity
  8
senhas
  6
ByLayer
 62
  256
370
   -1
100
AcDbText
 10
199.3162
 20
244.3047
 30
0
 40
1.5
  1
BR
 50
0
 41
1
 51
0
  7
style-standard
 71
    0
210
0
220
0
230
1
100
AcDbText
  0
TEXT
  5
144
100
AcDbEntity
  8
senhas
  6
ByLayer
 62
  256
370
   -1
100
AcDbText
 10
199.0779
 20
249.3957
 30
0
 40
1.5
  1
PR
 50
0
 41
1
 51
0
  7
style-standard
 71
    0
210
0
220
0
230
1
100
AcDbText
  0
TEXT
  5
145
100
AcDbEntity
  8
senhas
  6
ByLayer
 62
  256
370
   -1
100
AcDbText
 10
388.144089
 20
9.471499999999995
 30
0
 40
2.5
  1
XPAG
 50
0
 41
1
 51
0
  7
style-standard
 71
    0
210
0
220
0
230
1
100
AcDbText
  0
TEXT
  5
146
100
AcDbEntity
  8
senhas
  6
ByLayer
 62
  256
370
   -1
100
AcDbText
 10
403.845489
 20
9.471499999999995
 30
0
 40
2.5
  1
XRV
 50
0
 41
1
 51
0
  7
style-standard
 71
    0
210
0
220
0
230
1
100
AcDbText
  0
LINE
  5
147
100
AcDbEntity
  8
eqp
  6
ByLayer
 62
  256
370
   -1
100
AcDbLine
 10
203.676571
 20
242.2221
 11
214.5805379999999
 21
242.2221
  0
LINE
  5
148
100
AcDbEntity
  8
eqp
  6
ByLayer
 62
  256
370
   -1
100
AcDbLine
 10
203.676571
 20
247.718554
 11
214.5805379999999
 21
247.718554
  0
LINE
  5
149
100
AcDbEntity
  8
eqp
  6
ByLayer
 62
  256
370
   -1
100
AcDbLine
 10
203.676571
 20
236.941193
 11
214.5805379999999
 21
236.941193
  0
LINE
  5
14A
100
AcDbEntity
  8
eqp
  6
ByLayer
 62
  256
370
   -1
100
AcDbLine
 10
248.6188099999999
 20
231.40946
 11
203.676571
 21
231.40946
  0
LINE
  5
14B
100
AcDbEntity
  8
eqp
  6
ByLayer
 62
  256
370
   -1
100
AcDbLine
 10
203.676571
 20
252.891687
 11
248.6188099999999
 21
252.891687
  0
LINE
  5
14C
100
AcDbEntity
  8
eqp
  6
ByLayer
 62
  256
370
   -1
100
AcDbLine
 10
72.86935799999992
 20
240.993587
 11
55.891614
 21
240.993587
  0
LINE
  5
14D
100
AcDbEntity
  8
eqp
  6
ByLayer
 62
  256
370
   -1
100
AcDbLine
 10
55.891614
 20
250.610485
 11
72.86935799999992
 21
250.610485
  0
LINE
  5
14E
100
AcDbEntity
  8
eqp
  6
ByLayer
 62
  256
370
   -1
100
AcDbLine
 10
55.891614
 20
240.993587
 11
55.891614
 21
250.610485
  0
LINE
  5
14F
100
AcDbEntity
  8
eqp
  6
ByLayer
 62
  256
370
   -1
100
AcDbLine
 10
55.891614
 20
240.993587
 11
60.891614
 21
240.993587
  0
LINE
  5
150
100
AcDbEntity
  8
eqp
  6
ByLayer
 62
  256
370
   -1
100
AcDbLine
 10
65.82823299999995
 20
245.79919
 11
72.86935799999992
 21
245.79919
  0
LINE
  5
151
100
AcDbEntity
  8
eqp
  6
ByLayer
 62
  256
370
   -1
100
AcDbLine
 10
72.86935799999992
 20
245.79919
 11
65.82823299999995
 21
245.79919
  0
LINE
  5
152
100
AcDbEntity
  8
eqp
  6
ByLayer
 62
  256
370
   -1
100
AcDbLine
 10
65.82823299999995
 20
245.79919
 11
65.82823299999995
 21
250.610485
  0
LINE
  5
153
100
AcDbEntity
  8
eqp
  6
ByLayer
 62
  256
370
   -1
100
AcDbLine
 10
65.82823299999995
 20
240.98788
 11
65.82823299999995
 21
245.79919
  0
LINE
  5
154
100
AcDbEntity
  8
eqp
  6
ByLayer
 62
  256
370
   -1
100
AcDbLine
 10
72.86935799999992
 20
250.610485
 11
72.86935799999992
 21
240.993587
  0
LINE
  5
155
100
AcDbEntity
  8
eqp
  6
ByLayer
 62
  256
370
   -1
100
AcDbLine
 10
154.614524
 20
231.148537
 11
154.614524
 21
251.05734
  0
LINE
  5
156
100
AcDbEntity
  8
eqp
  6
ByLayer
 62
  256
370
   -1
100
AcDbLine
 10
203.702914
 20
252.90298
 11
203.702914
 21
231.420753
  0
LINE
  5
157
100
AcDbEntity
  8
eqp
  6
ByLayer
 62
  256
370
   -1
100
AcDbLine
 10
141.776877
 20
231.148537
 11
141.776877
 21
251.05734
  0
LINE
  5
158
100
AcDbEntity
  8
eqp
  6
ByLayer
 62
  256
370
   -1
100
AcDbLine
 10
154.614524
 20
231.148537
 11
141.776877
 21
231.148537
  0
LINE
  5
159
100
AcDbEntity
  8
eqp
  6
ByLayer
 62
  256
370
   -1
100
AcDbLine
 10
141.776877
 20
236.05734
 11
154.614524
 21
236.05734
  0
LINE
  5
15A
100
AcDbEntity
  8
eqp
  6
ByLayer
 62
  256
370
   -1
100
AcDbLine
 10
141.776877
 20
251.05734
 11
154.614524
 21
251.05734
  0
LINE
  5
15B
100
AcDbEntity
  8
eqp
  6
ByLayer
 62
  256
370
   -1
100
AcDbLine
 10
141.776877
 20
246.05734
 11
154.614524
 21
246.05734
  0
LINE
  5
15C
100
AcDbEntity
  8
eqp
  6
ByLayer
 62
  256
370
   -1
100
AcDbLine
 10
141.776877
 20
241.05734
 11
154.614524
 21
241.05734
  0
LINE
  5
15D
100
AcDbEntity
  8
eqp
  6
ByLayer
 62
  256
370
   -1
100
AcDbLine
 10
304.74497
 20
252.891687
 11
304.74497
 21
231.40946
  0
LINE
  5
15E
100
AcDbEntity
  8
eqp
  6
ByLayer
 62
  256
370
   -1
100
AcDbLine
 10
271.223317
 20
252.90298
 11
271.223317
 21
231.420753
  0
LINE
  5
15F
100
AcDbEntity
  8
eqp
  6
ByLayer
 62
  256
370
   -1
100
AcDbLine
 10
248.6188099999999
 20
252.891687
 11
248.6188099999999
 21
231.40946
  0
LINE
  5
160
100
AcDbEntity
  8
eqp
  6
ByLayer
 62
  256
370
   -1
100
AcDbLine
 10
214.579618
 20
252.891687
 11
214.579618
 21
231.40946
  0
LINE
  5
161
100
AcDbEntity
  8
eqp
  6
ByLayer
 62
  256
370
   -1
100
AcDbLine
 10
218.6780289999999
 20
252.891687
 11
218.6780289999999
 21
231.40946
  0
LINE
  5
162
100
AcDbEntity
  8
eqp
  6
ByLayer
 62
  256
370
   -1
100
AcDbLine
 10
304.744971
 20
231.40946
 11
271.196974
 21
231.40946
  0
LINE
  5
163
100
AcDbEntity
  8
eqp
  6
ByLayer
 62
  256
370
   -1
100
AcDbLine
 10
218.664762
 20
236.941193
 11
248.6188109999999
 21
236.941193
  0
LINE
  5
164
100
AcDbEntity
  8
eqp
  6
ByLayer
 62
  256
370
   -1
100
AcDbLine
 10
271.143298
 20
247.718554
 11
304.744972
 21
247.718554
  0
LINE
  5
165
100
AcDbEntity
  8
eqp
  6
ByLayer
 62
  256
370
   -1
100
AcDbLine
 10
271.196974
 20
252.891687
 11
304.744971
 21
252.891687
  0
LINE
  5
166
100
AcDbEntity
  8
eqp
  6
ByLayer
 62
  256
370
   -1
100
AcDbLine
 10
218.664762
 20
247.718554
 11
248.6188109999999
 21
247.718554
  0
LINE
  5
167
100
AcDbEntity
  8
eqp
  6
ByLayer
 62
  256
370
   -1
100
AcDbLine
 10
218.664762
 20
242.2221
 11
248.6188109999999
 21
242.2221
  0
CIRCLE
  5
168
100
AcDbEntity
  8
eqp
  6
ByLayer
 62
  256
370
   -1
100
AcDbCircle
 10
392.015112
 20
249.895429
 40
5.567501
  0
LINE
  5
169
100
AcDbEntity
  8
eqp
  6
ByLayer
 62
  256
370
   -1
100
AcDbLine
 10
386.586188
 20
249.895429
 11
397.4440059999999
 21
249.895429
  0
LINE
  5
16A
100
AcDbEntity
  8
eqp
  6
ByLayer
 62
  256
370
   -1
100
AcDbLine
 10
386.4817869999999
 20
255.556333
 11
397.548407
 21
255.556333
  0
LINE
  5
16B
100
AcDbEntity
  8
eqp
  6
ByLayer
 62
  256
370
   -1
100
AcDbLine
 10
397.548407
 20
244.33064
 11
386.4817869999999
 21
244.33064
  0
LINE
  5
16C
100
AcDbEntity
  8
eqp
  6
ByLayer
 62
  256
370
   -1
100
AcDbLine
 10
386.4817869999999
 20
244.33064
 11
386.4817869999999
 21
255.556333
  0
LINE
  5
16D
100
AcDbEntity
  8
eqp
  6
ByLayer
 62
  256
370
   -1
100
AcDbLine
 10
397.548407
 20
255.556333
 11
397.548407
 21
244.33064
  0
LINE
  5
16E
100
AcDbEntity
  8
PADRAO2
  6
ByLayer
 62
    5
370
   -1
100
AcDbLine
 10
25.2978
 20
276.299811
 11
410.299811
 21
276.299811
  0
LINE
  5
16F
100
AcDbEntity
  8
PADRAO2
  6
ByLayer
 62
    5
370
   -1
100
AcDbLine
 10
25.00450000000001
 20
264.980689
 11
410.523596
 21
264.980689
  0
LINE
  5
170
100
AcDbEntity
  8
PADRAO2
  6
ByLayer
 62
    5
370
   -1
100
AcDbLine
 10
380.858978
 20
7.173083
 11
380.858978
 21
17.04331100000001
  0
LINE
  5
171
100
AcDbEntity
  8
PADRAO2
  6
ByLayer
 62
    5
370
   -1
100
AcDbLine
 10
400.8354800000001
 20
7.173083
 11
400.8354800000001
 21
17.04331100000001
  0
LINE
  5
172
100
AcDbEntity
  8
PADRAO2
  6
ByLayer
 62
    5
370
   -1
100
AcDbLine
 10
332.3256899999999
 20
42
 11
332.3256899999999
 21
276.129004
  0
LINE
  5
173
100
AcDbEntity
  8
PADRAO2
  6
ByLayer
 62
    5
370
   -1
100
AcDbLine
 10
252.2144069999999
 20
42
 11
252.2144069999999
 21
288.299811
  0
LINE
  5
174
100
AcDbEntity
  8
PADRAO2
  6
ByLayer
 62
    5
370
   -1
100
AcDbLine
 10
185.886254
 20
42
 11
185.886254
 21
276.2886110000001
  0
LINE
  5
175
100
AcDbEntity
  8
PADRAO2
  6
ByLayer
 62
    5
370
   -1
100
AcDbLine
 10
113.3620969999999
 20
42
 11
113.3620969999999
 21
276.2886110000001
  0
LINE
  5
176
100
AcDbEntity
  8
PADRAO2
  6
ByLayer
 62
    5
370
   -1
100
AcDbLine
 10
291.646088
 20
27.84886000000001
 11
413.171203
 21
27.84886000000001
  0
LINE
  5
177
100
AcDbEntity
  8
PADRAO2
  6
ByLayer
 62
    5
370
   -1
100
AcDbLine
 10
291.646088
 20
7
 11
291.646088
 21
42
  0
LINE
  5
178
100
AcDbEntity
  8
PADRAO2
  6
ByLayer
 62
    5
370
   -1
100
AcDbLine
 10
235
 20
17.17021
 11
413.171203
 21
17.17021
  0
LINE
  5
179
100
AcDbEntity
  8
PADRAO2
  6
ByLayer
 62
    5
370
   -1
100
AcDbLine
 10
235
 20
42
 11
25
 21
42
  0
TEXT
  5
17A
100
AcDbEntity
  8
I-TEXTO2
  6
ByLayer
 62
  256
370
   -1
100
AcDbText
 10
381.7181890000001
 20
14.2796
 30
0
 40
1
  1
FL. No
 50
0
 41
1
 51
0
  7
style-standard
 71
    0
210
0
220
0
230
1
100
AcDbText
  0
TEXT
  5
17B
100
AcDbEntity
  8
I-TEXTO2
  6
ByLayer
 62
  256
370
   -1
100
AcDbText
 10
401.694689
 20
14.2796
 30
0
 40
1
  1
REV.
 50
0
 41
1
 51
0
  7
style-standard
 71
    0
210
0
220
0
230
1
100
AcDbText
  0
TEXT
  5
17C
100
AcDbEntity
  8
I-TEXTO2
  6
ByLayer
 62
  256
370
   -1
100
AcDbText
 10
293.1190990000001
 20
13.971117
 30
0
 40
1
  1
No. DESENHO
 50
0
 41
1
 51
0
  7
style-standard
 71
    0
210
0
220
0
230
1
100
AcDbText
  0
TEXT
  5
17D
100
AcDbEntity
  8
I-TEXTO2
  6
ByLayer
 62
  256
370
   -1
100
AcDbText
 10
293.1190990000001
 20
25.637717
 30
0
 40
1
  1
TITULO:
 50
0
 41
1
 51
0
  7
style-standard
 71
    0
210
0
220
0
230
1
100
AcDbText
  0
TEXT
  5
17E
100
AcDbEntity
  8
I-TEXTO2
  6
ByLayer
 62
  256
370
   -1
100
AcDbText
 10
293.1190990000001
 20
35.637717
 30
0
 40
1
  1
CLIENTE:
 50
0
 41
1
 51
0
  7
style-standard
 71
    0
210
0
220
0
230
1
100
AcDbText
  0
TEXT
  5
17F
100
AcDbEntity
  8
I-TEXTO2
  6
ByLayer
 62
  256
370
   -1
100
AcDbText
 10
236.372399
 20
13.971117
 30
0
 40
1
  1
Doc. No.
 50
0
 41
1
 51
0
  7
standard
 71
    0
210
0
220
0
230
1
100
AcDbText
  0
TEXT
  5
180
100
AcDbEntity
  8
senhas
  6
ByLayer
 62
  256
370
   -1
100
AcDbText
 10
147.174576
 20
256.5708
 30
0
 40
2.5
  1
A01PRRA0
 50
0
 41
1
 51
0
  7
standard
 71
    0
 72
    1
 11
147.174576
 21
256.5708
 31
0
210
0
220
0
230
1
100
AcDbText
  0
TEXT
  5
181
100
AcDbEntity
  8
senhas
  6
ByLayer
 62
  256
370
   -1
100
AcDbText
 10
232.613732
 20
244.8087
 30
0
 40
2.5
  1
A01PRRB0
 50
0
 41
1
 51
0
  7

 71
    0
 72
    1
 11
232.613732
 21
244.8087
 31
0
210
0
220
0
230
1
100
AcDbText
 73
    2
  0
ENDSEC
  0
SECTION
  2
OBJECTS
  0
DICTIONARY
  5
C
330
0
100
AcDbDictionary
281
    1
  3
ACAD_GROUP
350
D
  0
DICTIONARY
  5
D
330
C
100
AcDbDictionary
281
    1
  0
ENDSEC
  0
EOF
